<svg width="334" height="35" viewBox="0 0 334 35" fill="none" xmlns="http://www.w3.org/2000/svg">
<path d="M17.0245 27H12.7045V21.384H0.4645V17.568L12.6685 1.8H17.0245V17.496H21.3805V21.384H17.0245V27ZM12.7045 7.704L5.1445 17.496H12.7045V7.704ZM33.5426 27.54C27.5306 27.54 23.5346 22.356 23.5346 14.328C23.5346 6.48 27.4226 1.26 33.5426 1.26C39.5186 1.26 43.5146 6.372 43.5146 14.328C43.5146 22.212 39.6266 27.54 33.5426 27.54ZM33.5426 23.544C36.9626 23.544 39.1586 19.944 39.1586 14.328C39.1586 8.784 36.9626 5.22 33.5426 5.22C30.0866 5.22 27.8906 8.784 27.8906 14.328C27.8906 19.944 30.0866 23.544 33.5426 23.544ZM62.6925 27H58.3725V21.384H46.1325V17.568L58.3365 1.8H62.6925V17.496H67.0485V21.384H62.6925V27ZM58.3725 7.704L50.8125 17.496H58.3725V7.704ZM82.0464 34.2H77.7624V7.92H81.1824L81.6144 11.052C82.8744 8.82 85.3584 7.344 88.3824 7.344C93.4224 7.344 96.9864 11.448 96.9864 17.352C96.9864 23.364 93.4224 27.54 88.3464 27.54C85.6104 27.54 83.3424 26.316 82.0464 24.336V34.2ZM87.4104 23.94C90.5064 23.94 92.6304 21.24 92.6304 17.352C92.6304 13.572 90.5064 10.944 87.3744 10.944C84.2424 10.944 82.0464 13.536 82.0464 17.244C82.0464 21.168 84.2424 23.94 87.4104 23.94ZM106.597 27.396C102.205 27.396 99.3247 25.272 99.3607 21.708C99.3967 17.244 103.825 16.308 107.533 15.876C110.413 15.552 112.537 15.444 112.573 13.932C112.537 12.06 111.097 10.836 108.649 10.836C106.129 10.836 104.329 12.204 104.077 14.184H99.7927C100.189 10.152 103.789 7.344 108.721 7.344C113.869 7.344 116.713 10.152 116.713 14.22V22.86C116.713 23.4 117.001 23.688 117.649 23.688H118.693V27H116.677C114.733 27 113.545 26.208 113.221 24.768C113.149 24.588 113.077 24.336 113.041 24.12C111.925 26.172 109.837 27.396 106.597 27.396ZM107.461 24.048C110.377 24.048 112.573 22.392 112.573 19.836V17.172C111.853 18.288 110.017 18.54 108.001 18.792C105.625 19.08 103.645 19.404 103.645 21.42C103.645 23.076 104.977 24.048 107.461 24.048ZM130.208 34.776C124.88 34.776 121.208 32.184 121.208 28.08H125.456C125.456 29.88 127.364 31.32 130.208 31.32C133.592 31.32 135.356 29.304 135.356 26.424V23.724C134.132 25.56 132.008 26.712 129.272 26.712C124.16 26.712 120.488 22.752 120.488 17.064C120.488 11.34 124.16 7.344 129.236 7.344C132.224 7.344 134.636 8.748 135.824 10.872L136.184 7.92H139.568V26.424C139.568 31.464 136.004 34.776 130.208 34.776ZM130.1 23.148C133.196 23.148 135.356 20.628 135.356 17.028C135.356 13.428 133.196 10.944 130.1 10.944C127.004 10.944 124.88 13.428 124.88 17.064C124.88 20.664 127.004 23.148 130.1 23.148ZM152.675 27.54C146.843 27.54 142.847 23.364 142.847 17.532C142.847 11.232 146.987 7.344 152.315 7.344C157.715 7.344 161.315 11.124 161.423 17.316V18.324H147.095C147.383 21.672 149.471 23.94 152.711 23.94C154.907 23.94 156.563 22.86 157.211 20.952H161.351C160.379 25.056 157.175 27.54 152.675 27.54ZM147.275 15.336H157.031C156.491 12.6 154.799 10.944 152.315 10.944C149.795 10.944 147.923 12.6 147.275 15.336ZM176.826 27H172.578V7.92H175.998L176.358 10.728C177.546 8.748 179.958 7.344 182.802 7.344C186.87 7.344 189.534 10.08 189.534 14.364V27H185.286V14.58C185.286 12.456 183.882 11.052 181.506 11.052C178.734 11.052 176.862 12.96 176.826 15.444V27ZM202.385 27.54C196.193 27.54 192.593 23.184 192.593 17.28C192.593 11.052 196.805 7.344 202.385 7.344C208.541 7.344 212.141 11.664 212.141 17.28C212.141 23.724 208.073 27.54 202.385 27.54ZM202.385 23.904C205.805 23.904 207.821 21.096 207.821 17.28C207.821 13.5 205.697 10.98 202.385 10.98C199.073 10.98 196.913 13.5 196.913 17.28C196.913 21.456 199.253 23.904 202.385 23.904ZM225.85 27H223.402C219.262 27 217.03 24.948 217.03 21.168V11.52H213.682V7.92H217.03V1.404H221.278V7.92H226.21V11.52H221.278V20.88C221.278 22.5 222.106 23.4 223.69 23.4H225.85V27ZM243.532 27H239.284V11.52H235.936V7.92H239.284V5.544C239.284 1.944 241.408 -2.14577e-06 245.368 -2.14577e-06H249.508V3.6H245.656C244.288 3.6 243.532 4.392 243.532 5.832V7.92H249.076V11.52H243.532V27ZM260.182 27.54C253.99 27.54 250.39 23.184 250.39 17.28C250.39 11.052 254.602 7.344 260.182 7.344C266.338 7.344 269.938 11.664 269.938 17.28C269.938 23.724 265.87 27.54 260.182 27.54ZM260.182 23.904C263.602 23.904 265.618 21.096 265.618 17.28C265.618 13.5 263.494 10.98 260.182 10.98C256.87 10.98 254.71 13.5 254.71 17.28C254.71 21.456 257.05 23.904 260.182 23.904ZM280.105 27.54C275.569 27.54 272.941 24.696 272.941 20.556V7.92H277.189V20.376C277.189 22.536 278.701 23.796 280.969 23.796C283.885 23.796 285.613 21.888 285.649 19.44V7.92H289.897V27H286.477L286.153 24.228C285.037 26.28 282.769 27.54 280.105 27.54ZM298.467 27H294.219V7.92H297.639L297.999 10.728C299.187 8.748 301.599 7.344 304.443 7.344C308.511 7.344 311.175 10.08 311.175 14.364V27H306.927V14.58C306.927 12.456 305.523 11.052 303.147 11.052C300.375 11.052 298.503 12.96 298.467 15.444V27ZM323.09 27.54C317.942 27.54 314.234 23.364 314.234 17.352C314.234 11.448 317.87 7.344 322.946 7.344C325.646 7.344 327.878 8.46 329.21 10.26V-2.14577e-06H333.458V27H330.038L329.642 23.616C328.562 26.028 326.186 27.54 323.09 27.54ZM323.882 23.94C327.014 23.94 329.21 21.204 329.21 17.316C329.21 13.536 327.05 10.908 323.954 10.908C320.786 10.908 318.59 13.572 318.59 17.388C318.59 21.24 320.75 23.94 323.882 23.94Z" fill="url(#paint0_linear_169_4584)"/>
<defs>
<linearGradient id="paint0_linear_169_4584" x1="-84.0906" y1="-25.4531" x2="289.363" y2="71.7984" gradientUnits="userSpaceOnUse">
<stop stop-color="#067FD0"/>
<stop stop-color="#067FD0"/>
<stop offset="1" stop-color="#E63B60"/>
</linearGradient>
</defs>
</svg>
