<svg width="230" height="56" viewBox="0 0 230 56" fill="none" xmlns="http://www.w3.org/2000/svg">
<g filter="url(#filter0_d_2_1232)">
<rect x="32" y="12" width="166" height="32" rx="16" fill="#F9FFFF"/>
<path d="M84.5064 32V24.7273H87.2905C87.8161 24.7273 88.2528 24.8101 88.6009 24.9759C88.9512 25.1392 89.2128 25.3629 89.3857 25.647C89.5608 25.9311 89.6484 26.2531 89.6484 26.6129C89.6484 26.9089 89.5916 27.1622 89.478 27.3729C89.3643 27.5812 89.2116 27.7505 89.0199 27.8807C88.8281 28.0109 88.6139 28.1044 88.3771 28.1612V28.2322C88.6352 28.2464 88.8826 28.3258 89.1193 28.4702C89.3584 28.6122 89.5537 28.8134 89.7053 29.0739C89.8568 29.3343 89.9325 29.6491 89.9325 30.0185C89.9325 30.3949 89.8414 30.7334 89.6591 31.0341C89.4768 31.3324 89.2022 31.5679 88.8352 31.7408C88.4683 31.9136 88.0066 32 87.4503 32H84.5064ZM85.8239 30.8991H87.2408C87.719 30.8991 88.0634 30.808 88.2741 30.6257C88.4872 30.4411 88.5938 30.2043 88.5938 29.9155C88.5938 29.7 88.5405 29.5059 88.4339 29.3331C88.3274 29.1579 88.1759 29.0206 87.9794 28.9212C87.7829 28.8194 87.5485 28.7685 87.2763 28.7685H85.8239V30.8991ZM85.8239 27.8203H87.1271C87.3544 27.8203 87.5592 27.7789 87.7415 27.696C87.9238 27.6108 88.067 27.4912 88.1712 27.3374C88.2777 27.1811 88.331 26.9964 88.331 26.7834C88.331 26.5017 88.2315 26.2696 88.0327 26.0874C87.8362 25.9051 87.5438 25.8139 87.1555 25.8139H85.8239V27.8203ZM93.4011 32.1065C92.8684 32.1065 92.4068 31.9893 92.0162 31.755C91.6255 31.5206 91.3225 31.1927 91.1071 30.7713C90.894 30.3499 90.7875 29.8575 90.7875 29.294C90.7875 28.7306 90.894 28.237 91.1071 27.8132C91.3225 27.3894 91.6255 27.0604 92.0162 26.826C92.4068 26.5916 92.8684 26.4744 93.4011 26.4744C93.9338 26.4744 94.3954 26.5916 94.786 26.826C95.1767 27.0604 95.4785 27.3894 95.6916 27.8132C95.907 28.237 96.0147 28.7306 96.0147 29.294C96.0147 29.8575 95.907 30.3499 95.6916 30.7713C95.4785 31.1927 95.1767 31.5206 94.786 31.755C94.3954 31.9893 93.9338 32.1065 93.4011 32.1065ZM93.4082 31.0767C93.697 31.0767 93.9385 30.9974 94.1326 30.8388C94.3268 30.6778 94.4712 30.4624 94.5659 30.1925C94.6629 29.9226 94.7115 29.6219 94.7115 29.2905C94.7115 28.9567 94.6629 28.6548 94.5659 28.3849C94.4712 28.1127 94.3268 27.8961 94.1326 27.7351C93.9385 27.5741 93.697 27.4936 93.4082 27.4936C93.1123 27.4936 92.8661 27.5741 92.6696 27.7351C92.4754 27.8961 92.3298 28.1127 92.2328 28.3849C92.1381 28.6548 92.0907 28.9567 92.0907 29.2905C92.0907 29.6219 92.1381 29.9226 92.2328 30.1925C92.3298 30.4624 92.4754 30.6778 92.6696 30.8388C92.8661 30.9974 93.1123 31.0767 93.4082 31.0767ZM99.4851 32.1065C98.9524 32.1065 98.4908 31.9893 98.1001 31.755C97.7095 31.5206 97.4065 31.1927 97.1911 30.7713C96.978 30.3499 96.8714 29.8575 96.8714 29.294C96.8714 28.7306 96.978 28.237 97.1911 27.8132C97.4065 27.3894 97.7095 27.0604 98.1001 26.826C98.4908 26.5916 98.9524 26.4744 99.4851 26.4744C100.018 26.4744 100.479 26.5916 100.87 26.826C101.261 27.0604 101.563 27.3894 101.776 27.8132C101.991 28.237 102.099 28.7306 102.099 29.294C102.099 29.8575 101.991 30.3499 101.776 30.7713C101.563 31.1927 101.261 31.5206 100.87 31.755C100.479 31.9893 100.018 32.1065 99.4851 32.1065ZM99.4922 31.0767C99.781 31.0767 100.022 30.9974 100.217 30.8388C100.411 30.6778 100.555 30.4624 100.65 30.1925C100.747 29.9226 100.795 29.6219 100.795 29.2905C100.795 28.9567 100.747 28.6548 100.65 28.3849C100.555 28.1127 100.411 27.8961 100.217 27.7351C100.022 27.5741 99.781 27.4936 99.4922 27.4936C99.1963 27.4936 98.95 27.5741 98.7536 27.7351C98.5594 27.8961 98.4138 28.1127 98.3168 28.3849C98.2221 28.6548 98.1747 28.9567 98.1747 29.2905C98.1747 29.6219 98.2221 29.9226 98.3168 30.1925C98.4138 30.4624 98.5594 30.6778 98.7536 30.8388C98.95 30.9974 99.1963 31.0767 99.4922 31.0767ZM104.362 30.2884L104.358 28.7365H104.564L106.524 26.5455H108.026L105.615 29.2301H105.349L104.362 30.2884ZM103.19 32V24.7273H104.475V32H103.19ZM106.613 32L104.838 29.5178L105.704 28.6122L108.151 32H106.613ZM112.933 32.1101C112.588 32.1101 112.276 32.0485 111.999 31.9254C111.725 31.8 111.507 31.6153 111.346 31.3714C111.187 31.1276 111.108 30.8269 111.108 30.4695C111.108 30.1617 111.165 29.9072 111.278 29.706C111.392 29.5047 111.547 29.3438 111.744 29.223C111.94 29.1023 112.161 29.0111 112.408 28.9496C112.656 28.8857 112.913 28.8395 113.178 28.8111C113.498 28.7779 113.757 28.7483 113.956 28.7223C114.155 28.6939 114.299 28.6513 114.389 28.5945C114.482 28.5353 114.528 28.4441 114.528 28.321V28.2997C114.528 28.0322 114.448 27.825 114.29 27.6783C114.131 27.5315 113.903 27.4581 113.604 27.4581C113.29 27.4581 113.04 27.5268 112.855 27.6641C112.673 27.8014 112.55 27.9635 112.486 28.1506L111.286 27.9801C111.38 27.6487 111.536 27.3717 111.754 27.1491C111.972 26.9242 112.238 26.7562 112.553 26.6449C112.868 26.5312 113.216 26.4744 113.597 26.4744C113.86 26.4744 114.122 26.5052 114.382 26.5668C114.643 26.6283 114.88 26.7301 115.096 26.8722C115.311 27.0118 115.484 27.2024 115.614 27.4439C115.747 27.6854 115.813 27.9872 115.813 28.3494V32H114.577V31.2507H114.535C114.457 31.4022 114.347 31.5443 114.205 31.6768C114.065 31.8071 113.888 31.9124 113.675 31.9929C113.465 32.071 113.217 32.1101 112.933 32.1101ZM113.267 31.1655C113.525 31.1655 113.749 31.1146 113.938 31.0128C114.128 30.9086 114.273 30.7713 114.375 30.6009C114.479 30.4304 114.531 30.2446 114.531 30.0433V29.4006C114.491 29.4337 114.422 29.4645 114.325 29.4929C114.231 29.5213 114.124 29.5462 114.006 29.5675C113.887 29.5888 113.77 29.6077 113.654 29.6243C113.538 29.6409 113.438 29.6551 113.352 29.6669C113.161 29.6929 112.989 29.7356 112.837 29.7947C112.686 29.8539 112.566 29.9368 112.479 30.0433C112.391 30.1475 112.347 30.2824 112.347 30.4482C112.347 30.6849 112.434 30.8636 112.607 30.9844C112.779 31.1051 113 31.1655 113.267 31.1655ZM121.61 32.0959C121.182 32.0959 120.798 31.9858 120.46 31.7656C120.121 31.5455 119.854 31.2259 119.657 30.8068C119.461 30.3878 119.363 29.8788 119.363 29.2798C119.363 28.6738 119.462 28.1624 119.661 27.7457C119.862 27.3267 120.133 27.0107 120.474 26.7976C120.815 26.5821 121.195 26.4744 121.614 26.4744C121.934 26.4744 122.196 26.5289 122.402 26.6378C122.608 26.7443 122.772 26.8733 122.892 27.0249C123.013 27.174 123.107 27.3149 123.173 27.4474H123.226V24.7273H124.515V32H123.251V31.1406H123.173C123.107 31.2732 123.011 31.4141 122.885 31.5632C122.76 31.71 122.594 31.8355 122.388 31.9396C122.182 32.0438 121.923 32.0959 121.61 32.0959ZM121.969 31.0412C122.241 31.0412 122.473 30.9678 122.665 30.821C122.857 30.6719 123.002 30.4647 123.102 30.1996C123.201 29.9344 123.251 29.6255 123.251 29.2727C123.251 28.92 123.201 28.6134 123.102 28.353C123.005 28.0926 122.86 27.8902 122.669 27.7457C122.479 27.6013 122.246 27.5291 121.969 27.5291C121.683 27.5291 121.444 27.6037 121.252 27.7528C121.06 27.902 120.916 28.108 120.819 28.3707C120.721 28.6335 120.673 28.9342 120.673 29.2727C120.673 29.6136 120.721 29.9179 120.819 30.1854C120.918 30.4505 121.064 30.66 121.255 30.8139C121.449 30.9654 121.687 31.0412 121.969 31.0412ZM128.3 32.1065C127.753 32.1065 127.281 31.9929 126.883 31.7656C126.488 31.536 126.183 31.2116 125.97 30.7926C125.757 30.3712 125.651 29.8752 125.651 29.3047C125.651 28.7436 125.757 28.2512 125.97 27.8274C126.186 27.4013 126.486 27.0698 126.872 26.8331C127.258 26.594 127.712 26.4744 128.232 26.4744C128.569 26.4744 128.886 26.5289 129.184 26.6378C129.485 26.7443 129.75 26.91 129.98 27.1349C130.212 27.3598 130.394 27.6463 130.526 27.9943C130.659 28.34 130.725 28.7519 130.725 29.2301V29.6243H126.254V28.7578H129.493C129.491 28.5116 129.437 28.2926 129.333 28.1009C129.229 27.9067 129.084 27.754 128.896 27.6428C128.712 27.5315 128.496 27.4759 128.25 27.4759C127.987 27.4759 127.757 27.5398 127.558 27.6676C127.359 27.7931 127.204 27.9588 127.093 28.1648C126.984 28.3684 126.928 28.5921 126.926 28.8359V29.5923C126.926 29.9096 126.984 30.1818 127.1 30.4091C127.216 30.634 127.378 30.8068 127.586 30.9276C127.794 31.0459 128.038 31.1051 128.318 31.1051C128.505 31.1051 128.674 31.0791 128.825 31.027C128.977 30.9725 129.108 30.8932 129.22 30.7891C129.331 30.6849 129.415 30.5559 129.472 30.402L130.672 30.5369C130.596 30.8542 130.452 31.1312 130.239 31.3679C130.028 31.6023 129.758 31.7846 129.429 31.9148C129.1 32.0426 128.724 32.1065 128.3 32.1065ZM131.813 32V26.5455H133.042V27.4723H133.105C133.219 27.1598 133.407 26.916 133.67 26.7408C133.933 26.5632 134.247 26.4744 134.611 26.4744C134.98 26.4744 135.292 26.5644 135.545 26.7443C135.801 26.9219 135.981 27.1645 136.085 27.4723H136.142C136.262 27.1693 136.466 26.9278 136.752 26.7479C137.041 26.5656 137.383 26.4744 137.779 26.4744C138.281 26.4744 138.69 26.633 139.007 26.9503C139.325 27.2675 139.483 27.7304 139.483 28.3388V32H138.194V28.5376C138.194 28.1991 138.104 27.9517 137.924 27.7955C137.744 27.6368 137.524 27.5575 137.264 27.5575C136.954 27.5575 136.711 27.6546 136.536 27.8487C136.363 28.0405 136.277 28.2902 136.277 28.598V32H135.016V28.4844C135.016 28.2027 134.931 27.9777 134.76 27.8097C134.592 27.6416 134.372 27.5575 134.1 27.5575C133.915 27.5575 133.747 27.6049 133.596 27.6996C133.444 27.7919 133.323 27.9233 133.233 28.0938C133.143 28.2618 133.098 28.4583 133.098 28.6832V32H131.813ZM143.167 32.1065C142.634 32.1065 142.172 31.9893 141.782 31.755C141.391 31.5206 141.088 31.1927 140.873 30.7713C140.66 30.3499 140.553 29.8575 140.553 29.294C140.553 28.7306 140.66 28.237 140.873 27.8132C141.088 27.3894 141.391 27.0604 141.782 26.826C142.172 26.5916 142.634 26.4744 143.167 26.4744C143.699 26.4744 144.161 26.5916 144.552 26.826C144.942 27.0604 145.244 27.3894 145.457 27.8132C145.673 28.237 145.78 28.7306 145.78 29.294C145.78 29.8575 145.673 30.3499 145.457 30.7713C145.244 31.1927 144.942 31.5206 144.552 31.755C144.161 31.9893 143.699 32.1065 143.167 32.1065ZM143.174 31.0767C143.463 31.0767 143.704 30.9974 143.898 30.8388C144.092 30.6778 144.237 30.4624 144.331 30.1925C144.429 29.9226 144.477 29.6219 144.477 29.2905C144.477 28.9567 144.429 28.6548 144.331 28.3849C144.237 28.1127 144.092 27.8961 143.898 27.7351C143.704 27.5741 143.463 27.4936 143.174 27.4936C142.878 27.4936 142.632 27.5741 142.435 27.7351C142.241 27.8961 142.095 28.1127 141.998 28.3849C141.904 28.6548 141.856 28.9567 141.856 29.2905C141.856 29.6219 141.904 29.9226 141.998 30.1925C142.095 30.4624 142.241 30.6778 142.435 30.8388C142.632 30.9974 142.878 31.0767 143.174 31.0767Z" fill="url(#paint0_linear_2_1232)"/>
<rect x="32.5" y="12.5" width="165" height="31" rx="15.5" stroke="url(#paint1_linear_2_1232)"/>
</g>
<defs>
<filter id="filter0_d_2_1232" x="0" y="-16" width="230" height="96" filterUnits="userSpaceOnUse" color-interpolation-filters="sRGB">
<feFlood flood-opacity="0" result="BackgroundImageFix"/>
<feColorMatrix in="SourceAlpha" type="matrix" values="0 0 0 0 0 0 0 0 0 0 0 0 0 0 0 0 0 0 127 0" result="hardAlpha"/>
<feOffset dy="4"/>
<feGaussianBlur stdDeviation="16"/>
<feComposite in2="hardAlpha" operator="out"/>
<feColorMatrix type="matrix" values="0 0 0 0 0 0 0 0 0 0 0 0 0 0 0 0 0 0 0.1 0"/>
<feBlend mode="normal" in2="BackgroundImageFix" result="effect1_dropShadow_2_1232"/>
<feBlend mode="normal" in="SourceGraphic" in2="effect1_dropShadow_2_1232" result="shape"/>
</filter>
<linearGradient id="paint0_linear_2_1232" x1="67.9667" y1="18.5312" x2="139.57" y2="33.0554" gradientUnits="userSpaceOnUse">
<stop stop-color="#067FD0"/>
<stop stop-color="#067FD0"/>
<stop offset="1" stop-color="#E63B60"/>
</linearGradient>
<linearGradient id="paint1_linear_2_1232" x1="-8.9289" y1="2.74999" x2="179.916" y2="40.5998" gradientUnits="userSpaceOnUse">
<stop stop-color="#067FD0"/>
<stop stop-color="#067FD0"/>
<stop offset="1" stop-color="#E63B60"/>
</linearGradient>
</defs>
</svg>
