<svg width="390" height="18" viewBox="0 0 390 18" fill="none" xmlns="http://www.w3.org/2000/svg">
<path d="M6.24208 14.198C2.76808 14.198 0.284078 11.642 0.284078 7.664C0.284078 3.92 2.57008 1.202 6.40408 1.202C9.60808 1.202 11.8221 3.146 12.3441 6.242H10.7781C10.3101 3.938 8.70808 2.588 6.40408 2.588C3.61408 2.588 1.86808 4.514 1.86808 7.664C1.86808 10.85 3.65008 12.812 6.24208 12.812C8.60008 12.812 10.0941 11.21 10.0941 8.924H5.84608V7.628H10.2741C11.5881 7.628 12.2901 8.294 12.2901 9.518V14H10.9401V9.698H10.9041C10.6701 12.47 9.03208 14.198 6.24208 14.198ZM18.8985 14.198C15.8385 14.198 14.2185 12.02 14.2185 9.14C14.2185 5.954 16.3065 4.244 18.8985 4.244C21.9405 4.244 23.5785 6.44 23.5785 9.14C23.5785 12.434 21.5805 14.198 18.8985 14.198ZM18.8985 12.902C20.9325 12.902 22.0485 11.21 22.0485 9.14C22.0485 6.998 20.8065 5.54 18.8985 5.54C16.9905 5.54 15.7485 6.998 15.7485 9.14C15.7485 11.588 17.1705 12.902 18.8985 12.902ZM34.4716 14.198C32.9056 14.198 31.6276 13.424 30.9796 12.182L30.8176 14H29.6296V0.499999H31.1236V5.954C31.8256 4.91 33.0316 4.244 34.4716 4.244C36.9916 4.244 38.7556 6.26 38.7556 9.176C38.7556 12.146 36.9916 14.198 34.4716 14.198ZM34.2376 12.902C36.0016 12.902 37.2076 11.372 37.2076 9.176C37.2076 7.034 36.0016 5.54 34.2196 5.54C32.4196 5.54 31.1236 6.998 31.1236 9.104C31.1236 11.336 32.4196 12.902 34.2376 12.902ZM43.7981 14.144C41.6381 14.144 40.2521 13.028 40.2521 11.282C40.2521 9.086 42.3761 8.672 44.2841 8.474C45.7421 8.33 47.0021 8.348 47.0201 7.574C47.0021 6.368 46.0121 5.522 44.5721 5.522C43.1861 5.522 42.1061 6.296 41.9441 7.43H40.4681C40.6481 5.558 42.3401 4.244 44.6081 4.244C46.9661 4.244 48.4781 5.648 48.4781 7.664V12.308C48.4781 12.614 48.6401 12.776 48.9641 12.776H49.5041V14H48.6581C47.6321 14 47.0921 13.532 47.0921 12.65V12.362C46.5341 13.46 45.4541 14.144 43.7981 14.144ZM44.0141 12.866C45.7961 12.866 47.0201 11.732 47.0201 10.148V8.906C46.6061 9.464 45.5441 9.572 44.3741 9.698C43.0601 9.842 41.7461 10.022 41.7461 11.246C41.7461 12.236 42.6461 12.866 44.0141 12.866ZM55.4451 14.198C52.3491 14.198 50.6931 11.93 50.6931 9.176C50.6931 5.972 52.7991 4.244 55.3911 4.244C57.7851 4.244 59.4951 5.684 59.7651 8.132H58.3071C58.0551 6.548 56.9571 5.54 55.3551 5.54C53.4651 5.54 52.2051 6.926 52.2051 9.176C52.2051 11.606 53.6811 12.902 55.4631 12.902C56.9931 12.902 58.0371 11.93 58.3071 10.274H59.7651C59.4951 12.74 57.9111 14.198 55.4451 14.198ZM63.274 14H61.78V0.499999H63.274V9.158L67.918 4.46H69.718L66.28 7.934L70.24 14H68.494L65.254 8.978L63.274 10.976V14ZM80.5104 14H79.4484C77.5944 14 76.6044 13.046 76.6044 11.282V5.72H74.8404V4.46H76.6044V1.202H78.0984V4.46H80.6724V5.72H78.0984V11.282C78.0984 12.236 78.5664 12.74 79.4484 12.74H80.5104V14ZM86.3985 14.198C83.3385 14.198 81.7185 12.02 81.7185 9.14C81.7185 5.954 83.8065 4.244 86.3985 4.244C89.4405 4.244 91.0785 6.44 91.0785 9.14C91.0785 12.434 89.0805 14.198 86.3985 14.198ZM86.3985 12.902C88.4325 12.902 89.5485 11.21 89.5485 9.14C89.5485 6.998 88.3065 5.54 86.3985 5.54C84.4905 5.54 83.2485 6.998 83.2485 9.14C83.2485 11.588 84.6705 12.902 86.3985 12.902ZM102.044 14H100.982C99.1276 14 98.1376 13.046 98.1376 11.282V5.72H96.3736V4.46H98.1376V1.202H99.6316V4.46H102.206V5.72H99.6316V11.282C99.6316 12.236 100.1 12.74 100.982 12.74H102.044V14ZM105.514 14H104.02V0.499999H105.514V5.684C106.198 4.82 107.368 4.244 108.664 4.244C110.716 4.244 112.084 5.576 112.084 7.682V14H110.59V7.736C110.59 6.404 109.726 5.558 108.376 5.558C106.576 5.558 105.532 6.746 105.514 8.204V14ZM118.637 14.198C115.811 14.198 113.939 12.128 113.939 9.266C113.939 6.008 116.045 4.244 118.457 4.244C121.085 4.244 122.777 6.008 122.831 9.068V9.482H115.433C115.523 11.516 116.711 12.902 118.637 12.902C119.969 12.902 120.941 12.236 121.337 10.994H122.795C122.363 12.956 120.815 14.198 118.637 14.198ZM115.523 8.24H121.265C120.995 6.566 119.987 5.54 118.457 5.54C116.945 5.54 115.829 6.53 115.523 8.24ZM130.855 14H128.731V0.499999H130.855V5.486C131.503 4.694 132.601 4.172 133.843 4.172C135.877 4.172 137.209 5.54 137.209 7.682V14H135.085V7.79C135.085 6.728 134.383 6.026 133.249 6.026C131.809 6.026 130.873 6.98 130.855 8.222V14ZM143.634 14.27C140.538 14.27 138.738 12.092 138.738 9.14C138.738 6.026 140.844 4.172 143.634 4.172C146.712 4.172 148.512 6.332 148.512 9.14C148.512 12.362 146.478 14.27 143.634 14.27ZM143.634 12.452C145.344 12.452 146.352 11.048 146.352 9.14C146.352 7.25 145.29 5.99 143.634 5.99C141.978 5.99 140.898 7.25 140.898 9.14C140.898 11.228 142.068 12.452 143.634 12.452ZM152.3 14H150.176V4.46H151.886L152.048 5.792C152.642 4.856 153.812 4.172 155.234 4.172C156.602 4.172 157.646 4.856 158.15 5.954C158.69 4.946 159.914 4.172 161.426 4.172C163.424 4.172 164.702 5.594 164.702 7.646V14H162.56V7.754C162.56 6.692 161.912 6.008 160.886 6.008C159.428 6.008 158.51 6.962 158.492 8.222V14H156.368V7.754C156.368 6.692 155.72 6.008 154.694 6.008C153.236 6.008 152.318 6.962 152.3 8.222V14ZM171.144 14.27C168.228 14.27 166.23 12.182 166.23 9.266C166.23 6.116 168.3 4.172 170.964 4.172C173.664 4.172 175.464 6.062 175.518 9.158V9.662H168.354C168.498 11.336 169.542 12.47 171.162 12.47C172.26 12.47 173.088 11.93 173.412 10.976H175.482C174.996 13.028 173.394 14.27 171.144 14.27ZM168.444 8.168H173.322C173.052 6.8 172.206 5.972 170.964 5.972C169.704 5.972 168.768 6.8 168.444 8.168ZM179.336 17.6H177.194V4.46H178.904L179.12 6.026C179.75 4.91 180.992 4.172 182.504 4.172C185.024 4.172 186.806 6.224 186.806 9.176C186.806 12.182 185.024 14.27 182.486 14.27C181.118 14.27 179.984 13.658 179.336 12.668V17.6ZM182.018 12.47C183.566 12.47 184.628 11.12 184.628 9.176C184.628 7.286 183.566 5.972 182 5.972C180.434 5.972 179.336 7.268 179.336 9.122C179.336 11.084 180.434 12.47 182.018 12.47ZM191.611 14.198C189.415 14.198 187.975 13.136 187.993 11.354C188.011 9.122 190.225 8.654 192.079 8.438C193.519 8.276 194.581 8.222 194.599 7.466C194.581 6.53 193.861 5.918 192.637 5.918C191.377 5.918 190.477 6.602 190.351 7.592H188.209C188.407 5.576 190.207 4.172 192.673 4.172C195.247 4.172 196.669 5.576 196.669 7.61V11.93C196.669 12.2 196.813 12.344 197.137 12.344H197.659V14H196.651C195.679 14 195.085 13.604 194.923 12.884C194.887 12.794 194.851 12.668 194.833 12.56C194.275 13.586 193.231 14.198 191.611 14.198ZM192.043 12.524C193.501 12.524 194.599 11.696 194.599 10.418V9.086C194.239 9.644 193.321 9.77 192.313 9.896C191.125 10.04 190.135 10.202 190.135 11.21C190.135 12.038 190.801 12.524 192.043 12.524ZM203.416 17.888C200.752 17.888 198.916 16.592 198.916 14.54H201.04C201.04 15.44 201.994 16.16 203.416 16.16C205.108 16.16 205.99 15.152 205.99 13.712V12.362C205.378 13.28 204.316 13.856 202.948 13.856C200.392 13.856 198.556 11.876 198.556 9.032C198.556 6.17 200.392 4.172 202.93 4.172C204.424 4.172 205.63 4.874 206.224 5.936L206.404 4.46H208.096V13.712C208.096 16.232 206.314 17.888 203.416 17.888ZM203.362 12.074C204.91 12.074 205.99 10.814 205.99 9.014C205.99 7.214 204.91 5.972 203.362 5.972C201.814 5.972 200.752 7.214 200.752 9.032C200.752 10.832 201.814 12.074 203.362 12.074ZM214.596 14.198C211.77 14.198 209.898 12.128 209.898 9.266C209.898 6.008 212.004 4.244 214.416 4.244C217.044 4.244 218.736 6.008 218.79 9.068V9.482H211.392C211.482 11.516 212.67 12.902 214.596 12.902C215.928 12.902 216.9 12.236 217.296 10.994H218.754C218.322 12.956 216.774 14.198 214.596 14.198ZM211.482 8.24H217.224C216.954 6.566 215.946 5.54 214.416 5.54C212.904 5.54 211.788 6.53 211.482 8.24ZM227.876 14.144C225.716 14.144 224.33 13.028 224.33 11.282C224.33 9.086 226.454 8.672 228.362 8.474C229.82 8.33 231.08 8.348 231.098 7.574C231.08 6.368 230.09 5.522 228.65 5.522C227.264 5.522 226.184 6.296 226.022 7.43H224.546C224.726 5.558 226.418 4.244 228.686 4.244C231.044 4.244 232.556 5.648 232.556 7.664V12.308C232.556 12.614 232.718 12.776 233.042 12.776H233.582V14H232.736C231.71 14 231.17 13.532 231.17 12.65V12.362C230.612 13.46 229.532 14.144 227.876 14.144ZM228.092 12.866C229.874 12.866 231.098 11.732 231.098 10.148V8.906C230.684 9.464 229.622 9.572 228.452 9.698C227.138 9.842 225.824 10.022 225.824 11.246C225.824 12.236 226.724 12.866 228.092 12.866ZM236.751 14H235.257V4.46H236.445L236.589 5.918C237.237 4.91 238.479 4.244 239.901 4.244C241.953 4.244 243.321 5.576 243.321 7.682V14H241.827V7.736C241.827 6.404 240.963 5.558 239.523 5.558C237.813 5.558 236.769 6.746 236.751 8.204V14ZM249.515 14.198C246.959 14.198 245.177 12.146 245.177 9.176C245.177 6.26 246.941 4.244 249.497 4.244C250.937 4.244 252.143 4.874 252.827 5.882V0.499999H254.321V14H253.133L252.971 12.164C252.341 13.406 251.081 14.198 249.515 14.198ZM249.749 12.902C251.567 12.902 252.827 11.354 252.827 9.14C252.827 6.998 251.603 5.522 249.839 5.522C248.003 5.522 246.725 7.016 246.725 9.176C246.725 11.372 247.967 12.902 249.749 12.902ZM264.721 14.198C262.165 14.198 260.383 12.146 260.383 9.176C260.383 6.26 262.147 4.244 264.703 4.244C266.143 4.244 267.349 4.874 268.033 5.882V0.499999H269.527V14H268.339L268.177 12.164C267.547 13.406 266.287 14.198 264.721 14.198ZM264.955 12.902C266.773 12.902 268.033 11.354 268.033 9.14C268.033 6.998 266.809 5.522 265.045 5.522C263.209 5.522 261.931 7.016 261.931 9.176C261.931 11.372 263.173 12.902 264.955 12.902ZM272.787 2.858C272.157 2.858 271.671 2.372 271.671 1.742C271.671 1.112 272.157 0.643999 272.787 0.643999C273.417 0.643999 273.885 1.112 273.885 1.742C273.885 2.372 273.417 2.858 272.787 2.858ZM273.525 14H272.031V4.46H273.525V14ZM279.532 14.198C277.264 14.198 275.59 13.01 275.464 10.994H276.922C277.03 12.236 278.164 12.92 279.604 12.92C280.954 12.92 281.602 12.398 281.602 11.444C281.602 10.544 280.9 10.346 279.91 10.004L278.524 9.536C277.12 9.068 275.716 8.636 275.716 6.908C275.716 5.288 276.976 4.244 279.064 4.244C281.17 4.244 282.628 5.378 282.862 7.502H281.404C281.242 6.17 280.306 5.522 279.01 5.522C277.84 5.522 277.156 6.044 277.156 6.872C277.156 7.862 278.2 8.06 278.992 8.33L280.288 8.762C282.034 9.338 283.078 9.932 283.078 11.516C283.078 13.19 281.854 14.198 279.532 14.198ZM289.181 14.198C286.085 14.198 284.429 11.93 284.429 9.176C284.429 5.972 286.535 4.244 289.127 4.244C291.521 4.244 293.231 5.684 293.501 8.132H292.043C291.791 6.548 290.693 5.54 289.091 5.54C287.201 5.54 285.941 6.926 285.941 9.176C285.941 11.606 287.417 12.902 289.199 12.902C290.729 12.902 291.773 11.93 292.043 10.274H293.501C293.231 12.74 291.647 14.198 289.181 14.198ZM299.656 14.198C296.596 14.198 294.976 12.02 294.976 9.14C294.976 5.954 297.064 4.244 299.656 4.244C302.698 4.244 304.336 6.44 304.336 9.14C304.336 12.434 302.338 14.198 299.656 14.198ZM299.656 12.902C301.69 12.902 302.806 11.21 302.806 9.14C302.806 6.998 301.564 5.54 299.656 5.54C297.748 5.54 296.506 6.998 296.506 9.14C296.506 11.588 297.928 12.902 299.656 12.902ZM310.619 14H309.053L305.075 4.46H306.695L309.845 12.254L312.977 4.46H314.597L310.619 14ZM320.047 14.198C317.221 14.198 315.349 12.128 315.349 9.266C315.349 6.008 317.455 4.244 319.867 4.244C322.495 4.244 324.187 6.008 324.241 9.068V9.482H316.843C316.933 11.516 318.121 12.902 320.047 12.902C321.379 12.902 322.351 12.236 322.747 10.994H324.205C323.773 12.956 322.225 14.198 320.047 14.198ZM316.933 8.24H322.675C322.405 6.566 321.397 5.54 319.867 5.54C318.355 5.54 317.239 6.53 316.933 8.24ZM327.7 14H326.206V4.46H327.394L327.574 6.278C328.186 5.054 329.302 4.406 330.886 4.406H331.21V5.882H330.886C328.87 5.882 327.7 7.034 327.7 8.996V14ZM345.964 14H336.46V12.002L343.246 3.344H336.784V1.4H345.784V3.398L338.998 12.056H345.964V14ZM352.181 14.27C349.265 14.27 347.267 12.182 347.267 9.266C347.267 6.116 349.337 4.172 352.001 4.172C354.701 4.172 356.501 6.062 356.555 9.158V9.662H349.391C349.535 11.336 350.579 12.47 352.199 12.47C353.297 12.47 354.125 11.93 354.449 10.976H356.519C356.033 13.028 354.431 14.27 352.181 14.27ZM349.481 8.168H354.359C354.089 6.8 353.243 5.972 352.001 5.972C350.741 5.972 349.805 6.8 349.481 8.168ZM360.373 14H358.249V0.499999H360.373V14ZM367.918 14H365.704L361.726 4.46H364.03L366.82 11.498L369.592 4.46H371.896L367.918 14ZM377.177 14.27C374.081 14.27 372.281 12.092 372.281 9.14C372.281 6.026 374.387 4.172 377.177 4.172C380.255 4.172 382.055 6.332 382.055 9.14C382.055 12.362 380.021 14.27 377.177 14.27ZM377.177 12.452C378.887 12.452 379.895 11.048 379.895 9.14C379.895 7.25 378.833 5.99 377.177 5.99C375.521 5.99 374.441 7.25 374.441 9.14C374.441 11.228 375.611 12.452 377.177 12.452ZM385.843 14H383.719V4.46H385.429L385.681 6.332C386.293 5.036 387.409 4.352 388.993 4.352H389.353V6.422H388.993C387.013 6.422 385.843 7.484 385.843 9.284V14Z" fill="url(#paint0_linear_169_4731)"/>
<defs>
<linearGradient id="paint0_linear_169_4731" x1="-97.4048" y1="-12.2266" x2="241.516" y2="192.576" gradientUnits="userSpaceOnUse">
<stop stop-color="#067FD0"/>
<stop stop-color="#067FD0"/>
<stop offset="1" stop-color="#E63B60"/>
</linearGradient>
</defs>
</svg>
