<svg width="190" height="76" viewBox="0 0 190 76" fill="none" xmlns="http://www.w3.org/2000/svg">
<g filter="url(#filter0_d_121_1556)">
<rect x="32" y="28" width="126" height="28" rx="14" fill="#F9FFFF"/>
<path d="M72.6016 46H71.3616L74.2216 39H75.4216L78.2916 46H77.0516L76.3416 44.27H73.3116L72.6016 46ZM74.8316 40.55L73.7416 43.21H75.9116L74.8316 40.55ZM81.2924 46.15C79.5624 46.15 78.5524 44.91 78.5524 43.31C78.5524 41.57 79.7224 40.54 81.2624 40.54C82.7124 40.54 83.6924 41.43 83.7924 42.75H82.6324C82.5224 42.02 82.0024 41.55 81.2524 41.55C80.3524 41.55 79.7524 42.23 79.7524 43.31C79.7524 44.47 80.4124 45.14 81.2924 45.14C82.0124 45.14 82.5124 44.68 82.6324 43.92H83.7924C83.6524 45.29 82.7024 46.15 81.2924 46.15ZM87.1713 46.15C85.4413 46.15 84.4313 44.91 84.4313 43.31C84.4313 41.57 85.6013 40.54 87.1413 40.54C88.5913 40.54 89.5713 41.43 89.6713 42.75H88.5113C88.4013 42.02 87.8813 41.55 87.1313 41.55C86.2313 41.55 85.6313 42.23 85.6313 43.31C85.6313 44.47 86.2913 45.14 87.1713 45.14C87.8913 45.14 88.3913 44.68 88.5113 43.92H89.6713C89.5313 45.29 88.5813 46.15 87.1713 46.15ZM93.0402 46.15C91.4202 46.15 90.3102 44.99 90.3102 43.37C90.3102 41.62 91.4602 40.54 92.9402 40.54C94.4402 40.54 95.4402 41.59 95.4702 43.31V43.59H91.4902C91.5702 44.52 92.1502 45.15 93.0502 45.15C93.6602 45.15 94.1202 44.85 94.3002 44.32H95.4502C95.1802 45.46 94.2902 46.15 93.0402 46.15ZM91.5402 42.76H94.2502C94.1002 42 93.6302 41.54 92.9402 41.54C92.2402 41.54 91.7202 42 91.5402 42.76ZM97.591 48H96.401V40.7H97.351L97.471 41.57C97.821 40.95 98.511 40.54 99.351 40.54C100.751 40.54 101.741 41.68 101.741 43.32C101.741 44.99 100.751 46.15 99.341 46.15C98.581 46.15 97.951 45.81 97.591 45.26V48ZM99.081 45.15C99.941 45.15 100.531 44.4 100.531 43.32C100.531 42.27 99.941 41.54 99.071 41.54C98.201 41.54 97.591 42.26 97.591 43.29C97.591 44.38 98.201 45.15 99.081 45.15ZM105.544 46H104.864C103.714 46 103.094 45.43 103.094 44.38V41.7H102.164V40.7H103.094V38.89H104.274V40.7H105.644V41.7H104.274V44.3C104.274 44.75 104.504 45 104.944 45H105.544V46ZM110.436 46.11C109.216 46.11 108.416 45.52 108.426 44.53C108.436 43.29 109.666 43.03 110.696 42.91C111.496 42.82 112.086 42.79 112.096 42.37C112.086 41.85 111.686 41.51 111.006 41.51C110.306 41.51 109.806 41.89 109.736 42.44H108.546C108.656 41.32 109.656 40.54 111.026 40.54C112.456 40.54 113.246 41.32 113.246 42.45V44.85C113.246 45 113.326 45.08 113.506 45.08H113.796V46H113.236C112.696 46 112.366 45.78 112.276 45.38C112.256 45.33 112.236 45.26 112.226 45.2C111.916 45.77 111.336 46.11 110.436 46.11ZM110.676 45.18C111.486 45.18 112.096 44.72 112.096 44.01V43.27C111.896 43.58 111.386 43.65 110.826 43.72C110.166 43.8 109.616 43.89 109.616 44.45C109.616 44.91 109.986 45.18 110.676 45.18ZM115.775 46H114.595V38.5H115.775V46ZM118.196 46H117.016V38.5H118.196V46Z" fill="url(#paint0_linear_121_1556)"/>
<rect x="32.5" y="28.5" width="125" height="27" rx="13.5" stroke="url(#paint1_linear_121_1556)"/>
</g>
<defs>
<filter id="filter0_d_121_1556" x="0" y="0" width="190" height="92" filterUnits="userSpaceOnUse" color-interpolation-filters="sRGB">
<feFlood flood-opacity="0" result="BackgroundImageFix"/>
<feColorMatrix in="SourceAlpha" type="matrix" values="0 0 0 0 0 0 0 0 0 0 0 0 0 0 0 0 0 0 127 0" result="hardAlpha"/>
<feOffset dy="4"/>
<feGaussianBlur stdDeviation="16"/>
<feComposite in2="hardAlpha" operator="out"/>
<feColorMatrix type="matrix" values="0 0 0 0 0 0 0 0 0 0 0 0 0 0 0 0 0 0 0.1 0"/>
<feBlend mode="normal" in2="BackgroundImageFix" result="effect1_dropShadow_121_1556"/>
<feBlend mode="normal" in="SourceGraphic" in2="effect1_dropShadow_121_1556" result="shape"/>
</filter>
<linearGradient id="paint0_linear_121_1556" x1="59.1651" y1="30.9531" x2="114.985" y2="38.3475" gradientUnits="userSpaceOnUse">
<stop stop-color="#067FD0"/>
<stop stop-color="#067FD0"/>
<stop offset="1" stop-color="#E63B60"/>
</linearGradient>
<linearGradient id="paint1_linear_121_1556" x1="0.933487" y1="19.9062" x2="145.657" y2="45.0686" gradientUnits="userSpaceOnUse">
<stop stop-color="#067FD0"/>
<stop stop-color="#067FD0"/>
<stop offset="1" stop-color="#E63B60"/>
</linearGradient>
</defs>
</svg>
