<svg width="190" height="76" viewBox="0 0 190 76" fill="none" xmlns="http://www.w3.org/2000/svg">
<g filter="url(#filter0_d_121_1559)">
<rect x="32" y="28" width="126" height="28" rx="14" fill="#F9FFFF"/>
<path d="M73.5687 46.15C71.4187 46.15 70.0487 44.67 70.0487 42.48C70.0487 40.36 71.3887 38.85 73.5687 38.85C75.3887 38.85 76.6387 39.91 76.9387 41.7H75.7087C75.4887 40.6 74.6787 39.93 73.5687 39.93C72.1587 39.93 71.2787 40.92 71.2787 42.48C71.2787 44.08 72.1587 45.06 73.5687 45.06C74.6987 45.06 75.4887 44.41 75.7087 43.3H76.9387C76.6187 45.12 75.3987 46.15 73.5687 46.15ZM79.8535 46.15C78.5935 46.15 77.8635 45.36 77.8635 44.21V40.7H79.0435V44.16C79.0435 44.76 79.4635 45.11 80.0935 45.11C80.9035 45.11 81.3835 44.58 81.3935 43.9V40.7H82.5735V46H81.6235L81.5335 45.23C81.2235 45.8 80.5935 46.15 79.8535 46.15ZM85.8838 46.15C84.4338 46.15 83.5738 45.47 83.5038 44.31H84.6438C84.6838 44.88 85.1738 45.18 85.8238 45.18C86.4238 45.18 86.7438 44.95 86.7438 44.54C86.7438 44.13 86.4038 44.05 85.9438 43.9L85.2438 43.67C84.3638 43.38 83.6038 43.08 83.6038 42.1C83.6038 41.16 84.3238 40.54 85.5938 40.54C86.8238 40.54 87.6638 41.19 87.8038 42.39H86.6838C86.6238 41.79 86.1938 41.51 85.5838 41.51C85.0638 41.51 84.7638 41.73 84.7638 42.09C84.7638 42.5 85.2238 42.61 85.6038 42.74L86.2438 42.95C87.2938 43.3 87.9238 43.62 87.9238 44.57C87.9238 45.55 87.1838 46.15 85.8838 46.15ZM91.6576 46H90.9776C89.8276 46 89.2076 45.43 89.2076 44.38V41.7H88.2776V40.7H89.2076V38.89H90.3876V40.7H91.7576V41.7H90.3876V44.3C90.3876 44.75 90.6176 45 91.0576 45H91.6576V46ZM94.9541 46.15C93.2341 46.15 92.2341 44.94 92.2341 43.3C92.2341 41.57 93.4041 40.54 94.9541 40.54C96.6641 40.54 97.6641 41.74 97.6641 43.3C97.6641 45.09 96.5341 46.15 94.9541 46.15ZM94.9541 45.14C95.9041 45.14 96.4641 44.36 96.4641 43.3C96.4641 42.25 95.8741 41.55 94.9541 41.55C94.0341 41.55 93.4341 42.25 93.4341 43.3C93.4341 44.46 94.0841 45.14 94.9541 45.14ZM99.7683 46H98.5883V40.7H99.5383L99.6283 41.44C99.9583 40.92 100.608 40.54 101.398 40.54C102.158 40.54 102.738 40.92 103.018 41.53C103.318 40.97 103.998 40.54 104.838 40.54C105.948 40.54 106.658 41.33 106.658 42.47V46H105.468V42.53C105.468 41.94 105.108 41.56 104.538 41.56C103.728 41.56 103.218 42.09 103.208 42.79V46H102.028V42.53C102.028 41.94 101.668 41.56 101.098 41.56C100.288 41.56 99.7783 42.09 99.7683 42.79V46ZM108.378 39.99C107.948 39.99 107.618 39.65 107.618 39.22C107.618 38.79 107.948 38.46 108.378 38.46C108.818 38.46 109.138 38.79 109.138 39.22C109.138 39.65 108.818 39.99 108.378 39.99ZM108.968 46H107.788V40.7H108.968V46ZM114.17 46H109.97V44.92L112.81 41.74H110.06V40.7H114.13V41.78L111.28 44.95H114.17V46ZM117.611 46.15C115.991 46.15 114.881 44.99 114.881 43.37C114.881 41.62 116.031 40.54 117.511 40.54C119.011 40.54 120.011 41.59 120.041 43.31V43.59H116.061C116.141 44.52 116.721 45.15 117.621 45.15C118.231 45.15 118.691 44.85 118.871 44.32H120.021C119.751 45.46 118.861 46.15 117.611 46.15ZM116.111 42.76H118.821C118.671 42 118.201 41.54 117.511 41.54C116.811 41.54 116.291 42 116.111 42.76Z" fill="#CCCCCC"/>
<rect x="32.5" y="28.5" width="125" height="27" rx="13.5" stroke="#CCCCCC"/>
</g>
<defs>
<filter id="filter0_d_121_1559" x="0" y="0" width="190" height="92" filterUnits="userSpaceOnUse" color-interpolation-filters="sRGB">
<feFlood flood-opacity="0" result="BackgroundImageFix"/>
<feColorMatrix in="SourceAlpha" type="matrix" values="0 0 0 0 0 0 0 0 0 0 0 0 0 0 0 0 0 0 127 0" result="hardAlpha"/>
<feOffset dy="4"/>
<feGaussianBlur stdDeviation="16"/>
<feComposite in2="hardAlpha" operator="out"/>
<feColorMatrix type="matrix" values="0 0 0 0 0 0 0 0 0 0 0 0 0 0 0 0 0 0 0.1 0"/>
<feBlend mode="normal" in2="BackgroundImageFix" result="effect1_dropShadow_121_1559"/>
<feBlend mode="normal" in="SourceGraphic" in2="effect1_dropShadow_121_1559" result="shape"/>
</filter>
</defs>
</svg>
