<svg width="192" height="76" viewBox="0 0 192 76" fill="none" xmlns="http://www.w3.org/2000/svg">
<g filter="url(#filter0_d_121_1554)">
<path d="M75.1387 46H72.6187V39H75.1387C77.2187 39 78.6687 40.42 78.6687 42.46C78.6687 44.55 77.2187 46 75.1387 46ZM73.8187 40.08V44.92H75.2187C76.5187 44.92 77.4287 43.91 77.4287 42.46C77.4287 41.09 76.5187 40.08 75.2187 40.08H73.8187ZM82.1262 46.15C80.5062 46.15 79.3962 44.99 79.3962 43.37C79.3962 41.62 80.5462 40.54 82.0262 40.54C83.5262 40.54 84.5262 41.59 84.5562 43.31V43.59H80.5762C80.6562 44.52 81.2362 45.15 82.1362 45.15C82.7462 45.15 83.2062 44.85 83.3862 44.32H84.5362C84.2662 45.46 83.3762 46.15 82.1262 46.15ZM80.6262 42.76H83.3362C83.1862 42 82.7162 41.54 82.0262 41.54C81.3262 41.54 80.8062 42 80.6262 42.76ZM87.937 46.15C86.207 46.15 85.197 44.91 85.197 43.31C85.197 41.57 86.367 40.54 87.907 40.54C89.357 40.54 90.337 41.43 90.437 42.75H89.277C89.167 42.02 88.647 41.55 87.897 41.55C86.997 41.55 86.397 42.23 86.397 43.31C86.397 44.47 87.057 45.14 87.937 45.14C88.657 45.14 89.157 44.68 89.277 43.92H90.437C90.297 45.29 89.347 46.15 87.937 46.15ZM92.5559 46H91.3759V38.5H92.5559V46ZM94.3677 39.99C93.9377 39.99 93.6077 39.65 93.6077 39.22C93.6077 38.79 93.9377 38.46 94.3677 38.46C94.8077 38.46 95.1277 38.79 95.1277 39.22C95.1277 39.65 94.8077 39.99 94.3677 39.99ZM94.9577 46H93.7777V40.7H94.9577V46ZM97.3405 46H96.1605V40.7H97.1105L97.2105 41.48C97.5405 40.93 98.2105 40.54 99.0005 40.54C100.131 40.54 100.871 41.3 100.871 42.49V46H99.6905V42.55C99.6905 41.96 99.3005 41.57 98.6405 41.57C97.8705 41.57 97.3505 42.1 97.3405 42.79V46ZM104.45 46.15C102.83 46.15 101.72 44.99 101.72 43.37C101.72 41.62 102.87 40.54 104.35 40.54C105.85 40.54 106.85 41.59 106.88 43.31V43.59H102.9C102.98 44.52 103.56 45.15 104.46 45.15C105.07 45.15 105.53 44.85 105.71 44.32H106.86C106.59 45.46 105.7 46.15 104.45 46.15ZM102.95 42.76H105.66C105.51 42 105.04 41.54 104.35 41.54C103.65 41.54 103.13 42 102.95 42.76ZM111.729 46.11C110.509 46.11 109.709 45.52 109.719 44.53C109.729 43.29 110.959 43.03 111.989 42.91C112.789 42.82 113.379 42.79 113.389 42.37C113.379 41.85 112.979 41.51 112.299 41.51C111.599 41.51 111.099 41.89 111.029 42.44H109.839C109.949 41.32 110.949 40.54 112.319 40.54C113.749 40.54 114.539 41.32 114.539 42.45V44.85C114.539 45 114.619 45.08 114.799 45.08H115.089V46H114.529C113.989 46 113.659 45.78 113.569 45.38C113.549 45.33 113.529 45.26 113.519 45.2C113.209 45.77 112.629 46.11 111.729 46.11ZM111.969 45.18C112.779 45.18 113.389 44.72 113.389 44.01V43.27C113.189 43.58 112.679 43.65 112.119 43.72C111.459 43.8 110.909 43.89 110.909 44.45C110.909 44.91 111.279 45.18 111.969 45.18ZM117.068 46H115.888V38.5H117.068V46ZM119.489 46H118.309V38.5H119.489V46Z" fill="#E63B60"/>
<rect x="32.5" y="28.5" width="127" height="27" rx="13.5" stroke="#E63B60" shape-rendering="crispEdges"/>
</g>
<defs>
<filter id="filter0_d_121_1554" x="0" y="0" width="192" height="92" filterUnits="userSpaceOnUse" color-interpolation-filters="sRGB">
<feFlood flood-opacity="0" result="BackgroundImageFix"/>
<feColorMatrix in="SourceAlpha" type="matrix" values="0 0 0 0 0 0 0 0 0 0 0 0 0 0 0 0 0 0 127 0" result="hardAlpha"/>
<feOffset dy="4"/>
<feGaussianBlur stdDeviation="16"/>
<feComposite in2="hardAlpha" operator="out"/>
<feColorMatrix type="matrix" values="0 0 0 0 0 0 0 0 0 0 0 0 0 0 0 0 0 0 0.1 0"/>
<feBlend mode="normal" in2="BackgroundImageFix" result="effect1_dropShadow_121_1554"/>
<feBlend mode="normal" in="SourceGraphic" in2="effect1_dropShadow_121_1554" result="shape"/>
</filter>
</defs>
</svg>
