<svg width="344" height="74" viewBox="0 0 344 74" fill="none" xmlns="http://www.w3.org/2000/svg">
<g filter="url(#filter0_d_114_3594)">
<rect x="23" y="19" width="298" height="28" rx="14" fill="#F9FFFF"/>
<path d="M142.082 37H138.702V30H142.022C143.292 30 144.182 30.72 144.182 31.77C144.182 32.57 143.602 33.19 142.742 33.4C143.712 33.55 144.332 34.21 144.332 35.1C144.332 36.22 143.412 37 142.082 37ZM139.892 31.07V32.92H141.982C142.582 32.92 142.992 32.52 142.992 31.96C142.992 31.44 142.612 31.07 142.072 31.07H139.892ZM139.892 33.96V35.92H142.142C142.742 35.92 143.112 35.49 143.112 34.93C143.112 34.36 142.672 33.96 142.032 33.96H139.892ZM147.769 37.15C146.049 37.15 145.049 35.94 145.049 34.3C145.049 32.57 146.219 31.54 147.769 31.54C149.479 31.54 150.479 32.74 150.479 34.3C150.479 36.09 149.349 37.15 147.769 37.15ZM147.769 36.14C148.719 36.14 149.279 35.36 149.279 34.3C149.279 33.25 148.689 32.55 147.769 32.55C146.849 32.55 146.249 33.25 146.249 34.3C146.249 35.46 146.899 36.14 147.769 36.14ZM153.844 37.15C152.124 37.15 151.124 35.94 151.124 34.3C151.124 32.57 152.294 31.54 153.844 31.54C155.554 31.54 156.554 32.74 156.554 34.3C156.554 36.09 155.424 37.15 153.844 37.15ZM153.844 36.14C154.794 36.14 155.354 35.36 155.354 34.3C155.354 33.25 154.764 32.55 153.844 32.55C152.924 32.55 152.324 33.25 152.324 34.3C152.324 35.46 152.974 36.14 153.844 36.14ZM158.678 37H157.498V29.5H158.678V34L160.938 31.7H162.378L160.458 33.61L162.638 37H161.268L159.638 34.43L158.678 35.39V37ZM164.892 37.11C163.672 37.11 162.872 36.52 162.882 35.53C162.892 34.29 164.122 34.03 165.152 33.91C165.952 33.82 166.542 33.79 166.552 33.37C166.542 32.85 166.142 32.51 165.462 32.51C164.762 32.51 164.262 32.89 164.192 33.44H163.002C163.112 32.32 164.112 31.54 165.482 31.54C166.912 31.54 167.702 32.32 167.702 33.45V35.85C167.702 36 167.782 36.08 167.962 36.08H168.252V37H167.692C167.152 37 166.822 36.78 166.732 36.38C166.712 36.33 166.692 36.26 166.682 36.2C166.372 36.77 165.792 37.11 164.892 37.11ZM165.132 36.18C165.942 36.18 166.552 35.72 166.552 35.01V34.27C166.352 34.58 165.842 34.65 165.282 34.72C164.622 34.8 164.072 34.89 164.072 35.45C164.072 35.91 164.442 36.18 165.132 36.18ZM172.958 37.11C171.738 37.11 170.938 36.52 170.948 35.53C170.958 34.29 172.188 34.03 173.218 33.91C174.018 33.82 174.608 33.79 174.618 33.37C174.608 32.85 174.208 32.51 173.528 32.51C172.828 32.51 172.328 32.89 172.258 33.44H171.068C171.178 32.32 172.178 31.54 173.548 31.54C174.978 31.54 175.768 32.32 175.768 33.45V35.85C175.768 36 175.848 36.08 176.028 36.08H176.318V37H175.758C175.218 37 174.888 36.78 174.798 36.38C174.778 36.33 174.758 36.26 174.748 36.2C174.438 36.77 173.858 37.11 172.958 37.11ZM173.198 36.18C174.008 36.18 174.618 35.72 174.618 35.01V34.27C174.418 34.58 173.908 34.65 173.348 34.72C172.688 34.8 172.138 34.89 172.138 35.45C172.138 35.91 172.508 36.18 173.198 36.18ZM181.455 37.15C180.025 37.15 178.995 35.99 178.995 34.32C178.995 32.68 180.005 31.54 181.415 31.54C182.165 31.54 182.785 31.85 183.155 32.35V29.5H184.335V37H183.385L183.275 36.06C182.975 36.73 182.315 37.15 181.455 37.15ZM181.675 36.15C182.545 36.15 183.155 35.39 183.155 34.31C183.155 33.26 182.555 32.53 181.695 32.53C180.815 32.53 180.205 33.27 180.205 34.33C180.205 35.4 180.805 36.15 181.675 36.15ZM188.004 37.15C186.384 37.15 185.274 35.99 185.274 34.37C185.274 32.62 186.424 31.54 187.904 31.54C189.404 31.54 190.404 32.59 190.434 34.31V34.59H186.454C186.534 35.52 187.114 36.15 188.014 36.15C188.624 36.15 189.084 35.85 189.264 35.32H190.414C190.144 36.46 189.254 37.15 188.004 37.15ZM186.504 33.76H189.214C189.064 33 188.594 32.54 187.904 32.54C187.204 32.54 186.684 33 186.504 33.76ZM192.535 37H191.355V31.7H192.305L192.395 32.44C192.725 31.92 193.375 31.54 194.165 31.54C194.925 31.54 195.505 31.92 195.785 32.53C196.085 31.97 196.765 31.54 197.605 31.54C198.715 31.54 199.425 32.33 199.425 33.47V37H198.235V33.53C198.235 32.94 197.875 32.56 197.305 32.56C196.495 32.56 195.985 33.09 195.975 33.79V37H194.795V33.53C194.795 32.94 194.435 32.56 193.865 32.56C193.055 32.56 192.545 33.09 192.535 33.79V37ZM202.994 37.15C201.274 37.15 200.274 35.94 200.274 34.3C200.274 32.57 201.444 31.54 202.994 31.54C204.704 31.54 205.704 32.74 205.704 34.3C205.704 36.09 204.574 37.15 202.994 37.15ZM202.994 36.14C203.944 36.14 204.504 35.36 204.504 34.3C204.504 33.25 203.914 32.55 202.994 32.55C202.074 32.55 201.474 33.25 201.474 34.3C201.474 35.46 202.124 36.14 202.994 36.14Z" fill="url(#paint0_linear_114_3594)"/>
<rect x="23.5" y="19.5" width="297" height="27" rx="13.5" stroke="url(#paint1_linear_114_3594)"/>
</g>
<defs>
<filter id="filter0_d_114_3594" x="0" y="0" width="344" height="74" filterUnits="userSpaceOnUse" color-interpolation-filters="sRGB">
<feFlood flood-opacity="0" result="BackgroundImageFix"/>
<feColorMatrix in="SourceAlpha" type="matrix" values="0 0 0 0 0 0 0 0 0 0 0 0 0 0 0 0 0 0 127 0" result="hardAlpha"/>
<feOffset dy="4"/>
<feGaussianBlur stdDeviation="11.5"/>
<feComposite in2="hardAlpha" operator="out"/>
<feColorMatrix type="matrix" values="0 0 0 0 0 0 0 0 0 0 0 0 0 0 0 0 0 0 0.25 0"/>
<feBlend mode="normal" in2="BackgroundImageFix" result="effect1_dropShadow_114_3594"/>
<feBlend mode="normal" in="SourceGraphic" in2="effect1_dropShadow_114_3594" result="shape"/>
</filter>
<linearGradient id="paint0_linear_114_3594" x1="120.487" y1="21.9531" x2="199.279" y2="36.957" gradientUnits="userSpaceOnUse">
<stop stop-color="#067FD0"/>
<stop stop-color="#067FD0"/>
<stop offset="1" stop-color="#E63B60"/>
</linearGradient>
<linearGradient id="paint1_linear_114_3594" x1="-50.4748" y1="10.9062" x2="251.153" y2="134.937" gradientUnits="userSpaceOnUse">
<stop stop-color="#067FD0"/>
<stop stop-color="#067FD0"/>
<stop offset="1" stop-color="#E63B60"/>
</linearGradient>
</defs>
</svg>
