<svg width="88" height="88" viewBox="0 0 88 88" fill="none" xmlns="http://www.w3.org/2000/svg">
<path d="M42.2697 5.86667C42.4756 5.6044 42.7383 5.39233 43.0381 5.24651C43.338 5.10068 43.667 5.0249 44.0004 5.0249C44.3338 5.0249 44.6628 5.10068 44.9627 5.24651C45.2625 5.39233 45.5252 5.6044 45.7311 5.86667L52.3641 14.3C52.6333 14.643 52.9983 14.8983 53.4129 15.0334C53.8274 15.1686 54.2728 15.1775 54.6924 15.059L65.0141 12.133C65.3346 12.0417 65.6716 12.0243 65.9998 12.0823C66.328 12.1403 66.6387 12.2721 66.9085 12.4677C67.1783 12.6634 67.4001 12.9177 67.5572 13.2117C67.7143 13.5056 67.8026 13.8313 67.8154 14.1643L68.2187 24.8893C68.2357 25.325 68.3817 25.7458 68.6383 26.0984C68.8948 26.4509 69.2504 26.7192 69.6597 26.8693L79.7321 30.5727C80.0448 30.6874 80.3273 30.8716 80.5584 31.1114C80.7896 31.3512 80.9632 31.6404 81.0663 31.9571C81.1694 32.2738 81.1993 32.6098 81.1536 32.9397C81.108 33.2696 80.988 33.5849 80.8027 33.8617L74.8261 42.7753C74.5833 43.1376 74.4537 43.5639 74.4537 44C74.4537 44.4361 74.5833 44.8624 74.8261 45.2247L80.8027 54.1383C80.988 54.4151 81.108 54.7304 81.1536 55.0603C81.1993 55.3902 81.1694 55.7262 81.0663 56.0429C80.9632 56.3596 80.7896 56.6488 80.5584 56.8886C80.3273 57.1284 80.0448 57.3126 79.7321 57.4273L69.6597 61.1307C69.2511 61.2814 68.8963 61.5499 68.6404 61.9024C68.3846 62.2549 68.2391 62.6754 68.2224 63.1107L67.8154 73.8357C67.8026 74.1687 67.7143 74.4944 67.5572 74.7884C67.4001 75.0823 67.1783 75.3366 66.9085 75.5323C66.6387 75.7279 66.328 75.8597 65.9998 75.9177C65.6716 75.9757 65.3346 75.9583 65.0141 75.867L54.6924 72.941C54.2726 72.8214 53.8267 72.8293 53.4115 72.9638C52.9962 73.0983 52.6303 73.3533 52.3604 73.6963L45.7347 82.1333C45.5289 82.3956 45.2661 82.6077 44.9663 82.7535C44.6665 82.8993 44.3375 82.9751 44.0041 82.9751C43.6707 82.9751 43.3416 82.8993 43.0418 82.7535C42.742 82.6077 42.4792 82.3956 42.2734 82.1333L35.6404 73.7C35.3712 73.357 35.0062 73.1017 34.5916 72.9666C34.1771 72.8315 33.7317 72.8225 33.3121 72.941L22.9904 75.867C22.6699 75.9583 22.3328 75.9757 22.0047 75.9177C21.6765 75.8597 21.3658 75.7279 21.096 75.5323C20.8262 75.3366 20.6043 75.0823 20.4472 74.7884C20.2901 74.4944 20.2019 74.1687 20.1891 73.8357L19.7857 63.1107C19.7688 62.675 19.6228 62.2542 19.3662 61.9016C19.1096 61.5491 18.7541 61.2808 18.3447 61.1307L8.2724 57.4273C7.95971 57.3126 7.67715 57.1284 7.44602 56.8886C7.21489 56.6488 7.04123 56.3596 6.93813 56.0429C6.83503 55.7262 6.80519 55.3902 6.85085 55.0603C6.89652 54.7304 7.01649 54.4151 7.20174 54.1383L13.1784 45.2247C13.4212 44.8624 13.5508 44.4361 13.5508 44C13.5508 43.5639 13.4212 43.1376 13.1784 42.7753L7.20174 33.8617C7.01649 33.5849 6.89652 33.2696 6.85085 32.9397C6.80519 32.6098 6.83503 32.2738 6.93813 31.9571C7.04123 31.6404 7.21489 31.3512 7.44602 31.1114C7.67715 30.8716 7.95971 30.6874 8.2724 30.5727L18.3447 26.8693C18.7534 26.7187 19.1082 26.4501 19.364 26.0976C19.6199 25.7451 19.7654 25.3246 19.7821 24.8893L20.1891 14.1643C20.2019 13.8313 20.2901 13.5056 20.4472 13.2117C20.6043 12.9177 20.8262 12.6634 21.096 12.4677C21.3658 12.2721 21.6765 12.1403 22.0047 12.0823C22.3328 12.0243 22.6699 12.0417 22.9904 12.133L33.3121 15.059C33.7317 15.1775 34.1771 15.1686 34.5916 15.0334C35.0062 14.8983 35.3712 14.643 35.6404 14.3L42.2771 5.86667H42.2697Z" fill="#F9FFFF" stroke="url(#paint0_linear_114_3596)" stroke-width="1.5"/>
<defs>
<linearGradient id="paint0_linear_114_3596" x1="-11.5002" y1="-17.5076" x2="76.3537" y2="-14.2703" gradientUnits="userSpaceOnUse">
<stop stop-color="#067FD0"/>
<stop stop-color="#067FD0"/>
<stop offset="1" stop-color="#E63B60"/>
</linearGradient>
</defs>
</svg>
