<svg width="118" height="40" viewBox="0 0 118 40" fill="none" xmlns="http://www.w3.org/2000/svg">
<path d="M17.366 15H16.19V5.2H17.66L21.118 13.6L24.562 5.2H26.046V15H24.87V7.244L21.678 15H20.544L17.366 7.272V15ZM30.5823 15.112C28.9023 15.112 27.8243 14.244 27.8243 12.886C27.8243 11.178 29.4763 10.856 30.9603 10.702C32.0943 10.59 33.0743 10.604 33.0883 10.002C33.0743 9.064 32.3043 8.406 31.1843 8.406C30.1063 8.406 29.2663 9.008 29.1403 9.89H27.9923C28.1323 8.434 29.4483 7.412 31.2123 7.412C33.0463 7.412 34.2223 8.504 34.2223 10.072V13.684C34.2223 13.922 34.3483 14.048 34.6003 14.048H35.0203V15H34.3623C33.5643 15 33.1443 14.636 33.1443 13.95V13.726C32.7103 14.58 31.8703 15.112 30.5823 15.112ZM30.7503 14.118C32.1363 14.118 33.0883 13.236 33.0883 12.004V11.038C32.7663 11.472 31.9403 11.556 31.0303 11.654C30.0083 11.766 28.9863 11.906 28.9863 12.858C28.9863 13.628 29.6863 14.118 30.7503 14.118ZM39.3191 15.154C37.3311 15.154 35.9451 13.558 35.9451 11.248C35.9451 8.98 37.3171 7.412 39.3051 7.412C40.4251 7.412 41.3631 7.902 41.8951 8.686V4.5H43.0571V15H42.1331L42.0071 13.572C41.5171 14.538 40.5371 15.154 39.3191 15.154ZM39.5011 14.146C40.9151 14.146 41.8951 12.942 41.8951 11.22C41.8951 9.554 40.9431 8.406 39.5711 8.406C38.1431 8.406 37.1491 9.568 37.1491 11.248C37.1491 12.956 38.1151 14.146 39.5011 14.146ZM48.2807 15.154C46.0827 15.154 44.6267 13.544 44.6267 11.318C44.6267 8.784 46.2647 7.412 48.1407 7.412C50.1847 7.412 51.5007 8.784 51.5427 11.164V11.486H45.7887C45.8587 13.068 46.7827 14.146 48.2807 14.146C49.3167 14.146 50.0727 13.628 50.3807 12.662H51.5147C51.1787 14.188 49.9747 15.154 48.2807 15.154ZM45.8587 10.52H50.3247C50.1147 9.218 49.3307 8.42 48.1407 8.42C46.9647 8.42 46.0967 9.19 45.8587 10.52ZM59.6037 15.154C57.4617 15.154 55.9637 13.964 55.9637 12.256C55.9637 10.674 57.1257 9.89 58.3157 9.288C57.6577 8.546 57.2657 7.944 57.2657 7.174C57.2657 5.956 58.2877 5.046 59.6457 5.046C61.0037 5.046 62.0257 5.942 62.0257 7.16C62.0257 8.336 61.0877 8.952 60.0377 9.484L62.5717 12.088C62.8657 11.388 63.0197 10.534 63.0197 9.54H64.2097C64.2097 10.898 63.9297 12.046 63.4257 12.956L64.8117 14.384L63.9297 15.154L62.7257 13.894C61.9417 14.706 60.8777 15.154 59.6037 15.154ZM59.3517 8.798C60.1777 8.378 60.8217 7.916 60.8217 7.188C60.8217 6.544 60.3177 6.068 59.6597 6.068C58.9877 6.068 58.4697 6.558 58.4697 7.216C58.4697 7.748 58.8197 8.238 59.3517 8.798ZM59.6037 14.076C60.5977 14.076 61.3817 13.726 61.9557 13.096L58.9877 10.002C58.0077 10.52 57.1677 11.108 57.1677 12.186C57.1677 13.306 58.0777 14.076 59.6037 14.076ZM70.49 15H69.328V4.5H70.49V8.532C71.022 7.86 71.932 7.412 72.94 7.412C74.536 7.412 75.6 8.448 75.6 10.086V15H74.438V10.128C74.438 9.092 73.766 8.434 72.716 8.434C71.316 8.434 70.504 9.358 70.49 10.492V15ZM80.6828 15.154C78.3028 15.154 77.0428 13.46 77.0428 11.22C77.0428 8.742 78.6668 7.412 80.6828 7.412C83.0488 7.412 84.3228 9.12 84.3228 11.22C84.3228 13.782 82.7688 15.154 80.6828 15.154ZM80.6828 14.146C82.2648 14.146 83.1328 12.83 83.1328 11.22C83.1328 9.554 82.1668 8.42 80.6828 8.42C79.1988 8.42 78.2328 9.554 78.2328 11.22C78.2328 13.124 79.3388 14.146 80.6828 14.146ZM88.6146 15.154C86.8506 15.154 85.5486 14.23 85.4506 12.662H86.5846C86.6686 13.628 87.5506 14.16 88.6706 14.16C89.7206 14.16 90.2246 13.754 90.2246 13.012C90.2246 12.312 89.6786 12.158 88.9086 11.892L87.8306 11.528C86.7386 11.164 85.6466 10.828 85.6466 9.484C85.6466 8.224 86.6266 7.412 88.2506 7.412C89.8886 7.412 91.0226 8.294 91.2046 9.946H90.0706C89.9446 8.91 89.2166 8.406 88.2086 8.406C87.2986 8.406 86.7666 8.812 86.7666 9.456C86.7666 10.226 87.5786 10.38 88.1946 10.59L89.2026 10.926C90.5606 11.374 91.3726 11.836 91.3726 13.068C91.3726 14.37 90.4206 15.154 88.6146 15.154ZM96.4742 15H95.6482C94.2062 15 93.4362 14.258 93.4362 12.886V8.56H92.0642V7.58H93.4362V5.046H94.5982V7.58H96.6002V8.56H94.5982V12.886C94.5982 13.628 94.9622 14.02 95.6482 14.02H96.4742V15ZM101.068 15.154C98.8698 15.154 97.4138 13.544 97.4138 11.318C97.4138 8.784 99.0518 7.412 100.928 7.412C102.972 7.412 104.288 8.784 104.33 11.164V11.486H98.5758C98.6458 13.068 99.5698 14.146 101.068 14.146C102.104 14.146 102.86 13.628 103.168 12.662H104.302C103.966 14.188 102.762 15.154 101.068 15.154ZM98.6458 10.52H103.112C102.902 9.218 102.118 8.42 100.928 8.42C99.7518 8.42 98.8838 9.19 98.6458 10.52ZM108.854 15.154C106.866 15.154 105.48 13.558 105.48 11.248C105.48 8.98 106.852 7.412 108.84 7.412C109.96 7.412 110.898 7.902 111.43 8.686V4.5H112.592V15H111.668L111.542 13.572C111.052 14.538 110.072 15.154 108.854 15.154ZM109.036 14.146C110.45 14.146 111.43 12.942 111.43 11.22C111.43 9.554 110.478 8.406 109.106 8.406C107.678 8.406 106.684 9.568 106.684 11.248C106.684 12.956 107.65 14.146 109.036 14.146ZM16.54 26.334C16.05 26.334 15.672 25.956 15.672 25.466C15.672 24.976 16.05 24.612 16.54 24.612C17.03 24.612 17.394 24.976 17.394 25.466C17.394 25.956 17.03 26.334 16.54 26.334ZM17.114 35H15.952V27.58H17.114V35ZM20.1765 35H19.0145V27.58H19.9385L20.0505 28.714C20.5545 27.93 21.5205 27.412 22.6265 27.412C24.2225 27.412 25.2865 28.448 25.2865 30.086V35H24.1245V30.128C24.1245 29.092 23.4525 28.434 22.3325 28.434C21.0025 28.434 20.1905 29.358 20.1765 30.492V35ZM34.6768 35.154C31.9748 35.154 30.0428 33.166 30.0428 30.072C30.0428 27.16 31.8208 25.046 34.8028 25.046C37.2948 25.046 39.0168 26.558 39.4228 28.966H38.2048C37.8408 27.174 36.5948 26.124 34.8028 26.124C32.6328 26.124 31.2748 27.622 31.2748 30.072C31.2748 32.55 32.6608 34.076 34.6768 34.076C36.5108 34.076 37.6728 32.83 37.6728 31.052H34.3688V30.044H37.8128C38.8348 30.044 39.3808 30.562 39.3808 31.514V35H38.3308V31.654H38.3028C38.1208 33.81 36.8468 35.154 34.6768 35.154ZM44.5346 35.154C42.3366 35.154 40.8806 33.544 40.8806 31.318C40.8806 28.784 42.5186 27.412 44.3946 27.412C46.4386 27.412 47.7546 28.784 47.7966 31.164V31.486H42.0426C42.1126 33.068 43.0366 34.146 44.5346 34.146C45.5706 34.146 46.3266 33.628 46.6346 32.662H47.7686C47.4326 34.188 46.2286 35.154 44.5346 35.154ZM42.1126 30.52H46.5786C46.3686 29.218 45.5846 28.42 44.3946 28.42C43.2186 28.42 42.3506 29.19 42.1126 30.52ZM50.487 35H49.325V27.58H50.249L50.389 28.994C50.865 28.042 51.733 27.538 52.965 27.538H53.217V28.686H52.965C51.397 28.686 50.487 29.582 50.487 31.108V35ZM55.7097 35H54.5477V27.58H55.4717L55.5837 28.728C56.0877 27.93 57.0537 27.412 58.1177 27.412C59.2377 27.412 60.0777 27.986 60.4557 28.882C60.9317 28.014 61.9537 27.412 63.0877 27.412C64.6557 27.412 65.6637 28.518 65.6637 30.03V35H64.5017V30.072C64.5017 29.078 63.8857 28.434 62.8917 28.434C61.5057 28.434 60.6937 29.358 60.6797 30.492V35H59.5317V30.072C59.5317 29.078 58.9157 28.434 57.9217 28.434C56.5357 28.434 55.7237 29.358 55.7097 30.492V35ZM69.8753 35.112C68.1953 35.112 67.1173 34.244 67.1173 32.886C67.1173 31.178 68.7693 30.856 70.2533 30.702C71.3873 30.59 72.3673 30.604 72.3813 30.002C72.3673 29.064 71.5973 28.406 70.4773 28.406C69.3993 28.406 68.5593 29.008 68.4333 29.89H67.2853C67.4253 28.434 68.7413 27.412 70.5053 27.412C72.3393 27.412 73.5153 28.504 73.5153 30.072V33.684C73.5153 33.922 73.6413 34.048 73.8933 34.048H74.3133V35H73.6553C72.8573 35 72.4373 34.636 72.4373 33.95V33.726C72.0033 34.58 71.1633 35.112 69.8753 35.112ZM70.0433 34.118C71.4293 34.118 72.3813 33.236 72.3813 32.004V31.038C72.0593 31.472 71.2333 31.556 70.3233 31.654C69.3013 31.766 68.2793 31.906 68.2793 32.858C68.2793 33.628 68.9793 34.118 70.0433 34.118ZM76.7781 35H75.6161V27.58H76.5401L76.6521 28.714C77.1561 27.93 78.1221 27.412 79.2281 27.412C80.8241 27.412 81.8881 28.448 81.8881 30.086V35H80.7261V30.128C80.7261 29.092 80.0541 28.434 78.9341 28.434C77.6041 28.434 76.7921 29.358 76.7781 30.492V35ZM84.3871 37.8H83.1971V36.82H84.3871C85.1431 36.82 85.4651 36.554 85.6331 36.106L86.0391 35H85.7591L82.8191 27.58H84.0651L86.4731 33.838L88.7971 27.58H89.9871L86.6551 36.554C86.3471 37.366 85.6611 37.8 84.3871 37.8Z" fill="#F9FFFF"/>
<rect y="4" width="3" height="33" fill="url(#paint0_linear_149_3907)"/>
<defs>
<linearGradient id="paint0_linear_149_3907" x1="1.5" y1="4" x2="1.5" y2="37" gradientUnits="userSpaceOnUse">
<stop/>
<stop offset="0.313586"/>
<stop offset="0.350544" stop-color="#E60000"/>
<stop offset="0.578125" stop-color="#E60000"/>
<stop offset="0.649562" stop-color="#FF0000"/>
<stop offset="0.66804" stop-color="#FFD617"/>
<stop offset="1" stop-color="#FFD617"/>
</linearGradient>
</defs>
</svg>
