<svg width="264" height="292" viewBox="0 0 264 292" fill="none" xmlns="http://www.w3.org/2000/svg">
<g clip-path="url(#clip0_114_2836)">
<path d="M128.145 121.605C128.99 122.45 130.066 123.026 131.238 123.259C132.41 123.492 133.625 123.372 134.729 122.915C135.833 122.458 136.776 121.683 137.44 120.69C138.104 119.696 138.458 118.528 138.458 117.333C138.458 116.138 138.104 114.97 137.44 113.977C136.776 112.983 135.833 112.209 134.729 111.752C133.625 111.294 132.41 111.175 131.238 111.408C130.066 111.641 128.99 112.216 128.145 113.061L132.417 117.333L128.145 121.605Z" fill="#A9B2BA"/>
<path d="M152.311 121.605C153.156 122.45 154.233 123.026 155.405 123.259C156.576 123.492 157.791 123.372 158.895 122.915C159.999 122.458 160.943 121.683 161.607 120.69C162.271 119.696 162.625 118.528 162.625 117.333C162.625 116.138 162.271 114.97 161.607 113.977C160.943 112.983 159.999 112.209 158.895 111.752C157.791 111.294 156.576 111.175 155.405 111.408C154.233 111.641 153.156 112.216 152.311 113.061L156.583 117.333L152.311 121.605Z" fill="#A9B2BA"/>
</g>
<path d="M8 35V207" stroke="url(#paint0_linear_114_2836)" stroke-width="0.5"/>
<g filter="url(#filter0_d_114_2836)">
<rect x="46" y="19" width="195" height="32" rx="6" fill="#F9FFFF"/>
<rect x="46.5" y="19.5" width="194" height="31" rx="5.5" stroke="#A9B2BA"/>
</g>
<circle cx="8" cy="35" r="8" transform="rotate(-90 8 35)" fill="#E2E2E2"/>
<rect x="61" y="109" width="164" height="22" rx="5" fill="#F0F0F0"/>
<path d="M109.972 124.11C107.822 124.11 106.552 122.6 106.552 120.48C106.552 118.4 107.822 116.89 109.972 116.89C111.752 116.89 112.972 117.93 113.272 119.69H112.402C112.142 118.41 111.242 117.66 109.972 117.66C108.402 117.66 107.432 118.75 107.432 120.48C107.432 122.27 108.402 123.34 109.972 123.34C111.282 123.34 112.132 122.63 112.402 121.31H113.272C112.962 123.13 111.802 124.11 109.972 124.11ZM116.196 124.08C114.996 124.08 114.226 123.46 114.226 122.49C114.226 121.27 115.406 121.04 116.466 120.93C117.276 120.85 117.976 120.86 117.986 120.43C117.976 119.76 117.426 119.29 116.626 119.29C115.856 119.29 115.256 119.72 115.166 120.35H114.346C114.446 119.31 115.386 118.58 116.646 118.58C117.956 118.58 118.796 119.36 118.796 120.48V123.06C118.796 123.23 118.886 123.32 119.066 123.32H119.366V124H118.896C118.326 124 118.026 123.74 118.026 123.25V123.09C117.716 123.7 117.116 124.08 116.196 124.08ZM116.316 123.37C117.306 123.37 117.986 122.74 117.986 121.86V121.17C117.756 121.48 117.166 121.54 116.516 121.61C115.786 121.69 115.056 121.79 115.056 122.47C115.056 123.02 115.556 123.37 116.316 123.37ZM121.156 124H120.326V116.5H121.156V124ZM123.402 124H122.572V116.5H123.402V124ZM129.794 124H129.204C128.174 124 127.624 123.47 127.624 122.49V119.4H126.644V118.7H127.624V116.89H128.454V118.7H129.884V119.4H128.454V122.49C128.454 123.02 128.714 123.3 129.204 123.3H129.794V124ZM132.573 124.08C131.373 124.08 130.603 123.46 130.603 122.49C130.603 121.27 131.783 121.04 132.843 120.93C133.653 120.85 134.353 120.86 134.363 120.43C134.353 119.76 133.803 119.29 133.003 119.29C132.233 119.29 131.633 119.72 131.543 120.35H130.723C130.823 119.31 131.763 118.58 133.023 118.58C134.333 118.58 135.173 119.36 135.173 120.48V123.06C135.173 123.23 135.263 123.32 135.443 123.32H135.743V124H135.273C134.703 124 134.403 123.74 134.403 123.25V123.09C134.093 123.7 133.493 124.08 132.573 124.08ZM132.693 123.37C133.683 123.37 134.363 122.74 134.363 121.86V121.17C134.133 121.48 133.543 121.54 132.893 121.61C132.163 121.69 131.433 121.79 131.433 122.47C131.433 123.02 131.933 123.37 132.693 123.37ZM137.533 124H136.703V116.5H137.533V121.31L140.113 118.7H141.113L139.203 120.63L141.403 124H140.433L138.633 121.21L137.533 122.32V124ZM144.16 124.11C142.59 124.11 141.55 122.96 141.55 121.37C141.55 119.56 142.72 118.58 144.06 118.58C145.52 118.58 146.46 119.56 146.49 121.26V121.49H142.38C142.43 122.62 143.09 123.39 144.16 123.39C144.9 123.39 145.44 123.02 145.66 122.33H146.47C146.23 123.42 145.37 124.11 144.16 124.11ZM142.43 120.8H145.62C145.47 119.87 144.91 119.3 144.06 119.3C143.22 119.3 142.6 119.85 142.43 120.8ZM149.561 124.11C148.301 124.11 147.371 123.45 147.301 122.33H148.111C148.171 123.02 148.801 123.4 149.601 123.4C150.351 123.4 150.711 123.11 150.711 122.58C150.711 122.08 150.321 121.97 149.771 121.78L149.001 121.52C148.221 121.26 147.441 121.02 147.441 120.06C147.441 119.16 148.141 118.58 149.301 118.58C150.471 118.58 151.281 119.21 151.411 120.39H150.601C150.511 119.65 149.991 119.29 149.271 119.29C148.621 119.29 148.241 119.58 148.241 120.04C148.241 120.59 148.821 120.7 149.261 120.85L149.981 121.09C150.951 121.41 151.531 121.74 151.531 122.62C151.531 123.55 150.851 124.11 149.561 124.11ZM155.648 126H154.818V118.7H155.478L155.568 119.66C155.948 119 156.648 118.58 157.508 118.58C158.908 118.58 159.888 119.7 159.888 121.32C159.888 122.97 158.908 124.11 157.508 124.11C156.698 124.11 156.028 123.74 155.648 123.12V126ZM157.378 123.39C158.358 123.39 159.028 122.54 159.028 121.32C159.028 120.13 158.358 119.3 157.368 119.3C156.368 119.3 155.648 120.11 155.648 121.28C155.648 122.52 156.368 123.39 157.378 123.39ZM161.84 124H161.01V116.5H161.84V124ZM164.936 124.08C163.736 124.08 162.966 123.46 162.966 122.49C162.966 121.27 164.146 121.04 165.206 120.93C166.016 120.85 166.716 120.86 166.726 120.43C166.716 119.76 166.166 119.29 165.366 119.29C164.596 119.29 163.996 119.72 163.906 120.35H163.086C163.186 119.31 164.126 118.58 165.386 118.58C166.696 118.58 167.536 119.36 167.536 120.48V123.06C167.536 123.23 167.626 123.32 167.806 123.32H168.106V124H167.636C167.066 124 166.766 123.74 166.766 123.25V123.09C166.456 123.7 165.856 124.08 164.936 124.08ZM165.056 123.37C166.046 123.37 166.726 122.74 166.726 121.86V121.17C166.496 121.48 165.906 121.54 165.256 121.61C164.526 121.69 163.796 121.79 163.796 122.47C163.796 123.02 164.296 123.37 165.056 123.37ZM171.406 124.11C169.686 124.11 168.766 122.85 168.766 121.32C168.766 119.54 169.936 118.58 171.376 118.58C172.706 118.58 173.656 119.38 173.806 120.74H172.996C172.856 119.86 172.246 119.3 171.356 119.3C170.306 119.3 169.606 120.07 169.606 121.32C169.606 122.67 170.426 123.39 171.416 123.39C172.266 123.39 172.846 122.85 172.996 121.93H173.806C173.656 123.3 172.776 124.11 171.406 124.11ZM177.236 124.11C175.666 124.11 174.626 122.96 174.626 121.37C174.626 119.56 175.796 118.58 177.136 118.58C178.596 118.58 179.536 119.56 179.566 121.26V121.49H175.456C175.506 122.62 176.166 123.39 177.236 123.39C177.976 123.39 178.516 123.02 178.736 122.33H179.546C179.306 123.42 178.446 124.11 177.236 124.11ZM175.506 120.8H178.696C178.546 119.87 177.986 119.3 177.136 119.3C176.296 119.3 175.676 119.85 175.506 120.8Z" fill="#919191"/>
<rect x="61" y="66" width="164" height="22" rx="5" fill="#F0F0F0"/>
<path d="M109.161 81H105.871V74H109.081C110.301 74 111.151 74.72 111.151 75.76C111.151 76.51 110.621 77.13 109.801 77.39C110.711 77.57 111.311 78.23 111.311 79.09C111.311 80.22 110.431 81 109.161 81ZM106.701 74.77V77.06H109.031C109.781 77.06 110.301 76.56 110.301 75.85C110.301 75.21 109.831 74.77 109.161 74.77H106.701ZM106.701 77.81V80.23H109.251C109.951 80.23 110.441 79.73 110.441 79C110.441 78.22 109.831 77.81 109.081 77.81H106.701ZM114.838 81.11C113.138 81.11 112.238 79.9 112.238 78.3C112.238 76.53 113.398 75.58 114.838 75.58C116.528 75.58 117.438 76.8 117.438 78.3C117.438 80.13 116.328 81.11 114.838 81.11ZM114.838 80.39C115.968 80.39 116.588 79.45 116.588 78.3C116.588 77.11 115.898 76.3 114.838 76.3C113.778 76.3 113.088 77.11 113.088 78.3C113.088 79.66 113.878 80.39 114.838 80.39ZM121.147 81H120.557C119.527 81 118.977 80.47 118.977 79.49V76.4H117.997V75.7H118.977V73.89H119.807V75.7H121.237V76.4H119.807V79.49C119.807 80.02 120.067 80.3 120.557 80.3H121.147V81ZM124.881 74.81C124.521 74.81 124.261 74.55 124.261 74.19C124.261 73.84 124.521 73.58 124.881 73.58C125.231 73.58 125.491 73.84 125.491 74.19C125.491 74.55 125.231 74.81 124.881 74.81ZM123.711 83H122.971V82.3H123.711C124.201 82.3 124.461 82.02 124.461 81.49V75.7H125.291V81.49C125.291 82.47 124.741 83 123.711 83ZM128.979 81.11C127.279 81.11 126.379 79.9 126.379 78.3C126.379 76.53 127.539 75.58 128.979 75.58C130.669 75.58 131.579 76.8 131.579 78.3C131.579 80.13 130.469 81.11 128.979 81.11ZM128.979 80.39C130.109 80.39 130.729 79.45 130.729 78.3C130.729 77.11 130.039 76.3 128.979 76.3C127.919 76.3 127.229 77.11 127.229 78.3C127.229 79.66 128.019 80.39 128.979 80.39ZM133.084 74.81C132.734 74.81 132.464 74.54 132.464 74.19C132.464 73.84 132.734 73.58 133.084 73.58C133.434 73.58 133.694 73.84 133.694 74.19C133.694 74.54 133.434 74.81 133.084 74.81ZM133.494 81H132.664V75.7H133.494V81ZM135.682 81H134.852V75.7H135.512L135.592 76.51C135.952 75.95 136.642 75.58 137.432 75.58C138.572 75.58 139.332 76.32 139.332 77.49V81H138.502V77.52C138.502 76.78 138.022 76.31 137.222 76.31C136.272 76.31 135.692 76.97 135.682 77.78V81ZM142.613 81.11C141.353 81.11 140.423 80.45 140.353 79.33H141.163C141.223 80.02 141.853 80.4 142.653 80.4C143.403 80.4 143.763 80.11 143.763 79.58C143.763 79.08 143.373 78.97 142.823 78.78L142.053 78.52C141.273 78.26 140.493 78.02 140.493 77.06C140.493 76.16 141.193 75.58 142.353 75.58C143.523 75.58 144.333 76.21 144.463 77.39H143.653C143.563 76.65 143.043 76.29 142.323 76.29C141.673 76.29 141.293 76.58 141.293 77.04C141.293 77.59 141.873 77.7 142.313 77.85L143.033 78.09C144.003 78.41 144.583 78.74 144.583 79.62C144.583 80.55 143.903 81.11 142.613 81.11ZM150.61 81H150.02C148.99 81 148.44 80.47 148.44 79.49V76.4H147.46V75.7H148.44V73.89H149.27V75.7H150.7V76.4H149.27V79.49C149.27 80.02 149.53 80.3 150.02 80.3H150.61V81ZM152.538 81H151.708V73.5H152.538V76.38C152.918 75.9 153.568 75.58 154.288 75.58C155.428 75.58 156.188 76.32 156.188 77.49V81H155.358V77.52C155.358 76.78 154.878 76.31 154.128 76.31C153.128 76.31 152.548 76.97 152.538 77.78V81ZM159.829 81.11C158.259 81.11 157.219 79.96 157.219 78.37C157.219 76.56 158.389 75.58 159.729 75.58C161.189 75.58 162.129 76.56 162.159 78.26V78.49H158.049C158.099 79.62 158.759 80.39 159.829 80.39C160.569 80.39 161.109 80.02 161.329 79.33H162.139C161.899 80.42 161.039 81.11 159.829 81.11ZM158.099 77.8H161.289C161.139 76.87 160.579 76.3 159.729 76.3C158.889 76.3 158.269 76.85 158.099 77.8ZM167.866 81.11C166.146 81.11 165.226 79.85 165.226 78.32C165.226 76.54 166.396 75.58 167.836 75.58C169.166 75.58 170.116 76.38 170.266 77.74H169.456C169.316 76.86 168.706 76.3 167.816 76.3C166.766 76.3 166.066 77.07 166.066 78.32C166.066 79.67 166.886 80.39 167.876 80.39C168.726 80.39 169.306 79.85 169.456 78.93H170.266C170.116 80.3 169.236 81.11 167.866 81.11ZM173.066 81.08C171.866 81.08 171.096 80.46 171.096 79.49C171.096 78.27 172.276 78.04 173.336 77.93C174.146 77.85 174.846 77.86 174.856 77.43C174.846 76.76 174.296 76.29 173.496 76.29C172.726 76.29 172.126 76.72 172.036 77.35H171.216C171.316 76.31 172.256 75.58 173.516 75.58C174.826 75.58 175.666 76.36 175.666 77.48V80.06C175.666 80.23 175.756 80.32 175.936 80.32H176.236V81H175.766C175.196 81 174.896 80.74 174.896 80.25V80.09C174.586 80.7 173.986 81.08 173.066 81.08ZM173.186 80.37C174.176 80.37 174.856 79.74 174.856 78.86V78.17C174.626 78.48 174.036 78.54 173.386 78.61C172.656 78.69 171.926 78.79 171.926 79.47C171.926 80.02 172.426 80.37 173.186 80.37ZM178.026 81H177.196V73.5H178.026V81ZM180.272 81H179.442V73.5H180.272V81Z" fill="#919191"/>
<rect x="61" y="151" width="164" height="22" rx="5" fill="#F0F0F0"/>
<path d="M69.0621 166H68.1921L71.0721 159H71.9221L74.8121 166H73.9421L73.1221 164H69.8821L69.0621 166ZM71.5021 160.07L70.2021 163.24H72.8021L71.5021 160.07ZM76.1898 159.81C75.8398 159.81 75.5698 159.54 75.5698 159.19C75.5698 158.84 75.8398 158.58 76.1898 158.58C76.5398 158.58 76.7998 158.84 76.7998 159.19C76.7998 159.54 76.5398 159.81 76.1898 159.81ZM76.5998 166H75.7698V160.7H76.5998V166ZM82.0073 163.24H77.7273V162.54H82.0073V163.24ZM85.8531 166.11C84.9831 166.11 84.2731 165.68 83.9131 164.99L83.8231 166H83.1631V158.5H83.9931V161.53C84.3831 160.95 85.0531 160.58 85.8531 160.58C87.2531 160.58 88.2331 161.7 88.2331 163.32C88.2331 164.97 87.2531 166.11 85.8531 166.11ZM85.7231 165.39C86.7031 165.39 87.3731 164.54 87.3731 163.32C87.3731 162.13 86.7031 161.3 85.7131 161.3C84.7131 161.3 83.9931 162.11 83.9931 163.28C83.9931 164.52 84.7131 165.39 85.7231 165.39ZM91.0345 166.08C89.8345 166.08 89.0645 165.46 89.0645 164.49C89.0645 163.27 90.2445 163.04 91.3045 162.93C92.1145 162.85 92.8145 162.86 92.8245 162.43C92.8145 161.76 92.2645 161.29 91.4645 161.29C90.6945 161.29 90.0945 161.72 90.0045 162.35H89.1845C89.2845 161.31 90.2245 160.58 91.4845 160.58C92.7945 160.58 93.6345 161.36 93.6345 162.48V165.06C93.6345 165.23 93.7245 165.32 93.9045 165.32H94.2045V166H93.7345C93.1645 166 92.8645 165.74 92.8645 165.25V165.09C92.5545 165.7 91.9545 166.08 91.0345 166.08ZM91.1545 165.37C92.1445 165.37 92.8245 164.74 92.8245 163.86V163.17C92.5945 163.48 92.0045 163.54 91.3545 163.61C90.6245 163.69 89.8945 163.79 89.8945 164.47C89.8945 165.02 90.3945 165.37 91.1545 165.37ZM97.1151 166.11C95.8551 166.11 94.9251 165.45 94.8551 164.33H95.6651C95.7251 165.02 96.3551 165.4 97.1551 165.4C97.9051 165.4 98.2651 165.11 98.2651 164.58C98.2651 164.08 97.8751 163.97 97.3251 163.78L96.5551 163.52C95.7751 163.26 94.9951 163.02 94.9951 162.06C94.9951 161.16 95.6951 160.58 96.8551 160.58C98.0251 160.58 98.8351 161.21 98.9651 162.39H98.1551C98.0651 161.65 97.5451 161.29 96.8251 161.29C96.1751 161.29 95.7951 161.58 95.7951 162.04C95.7951 162.59 96.3751 162.7 96.8151 162.85L97.5351 163.09C98.5051 163.41 99.0851 163.74 99.0851 164.62C99.0851 165.55 98.4051 166.11 97.1151 166.11ZM102.446 166.11C100.876 166.11 99.8358 164.96 99.8358 163.37C99.8358 161.56 101.006 160.58 102.346 160.58C103.806 160.58 104.746 161.56 104.776 163.26V163.49H100.666C100.716 164.62 101.376 165.39 102.446 165.39C103.186 165.39 103.726 165.02 103.946 164.33H104.756C104.516 165.42 103.656 166.11 102.446 166.11ZM100.716 162.8H103.906C103.756 161.87 103.196 161.3 102.346 161.3C101.506 161.3 100.886 161.85 100.716 162.8ZM108.008 166.11C106.588 166.11 105.598 164.97 105.598 163.32C105.598 161.7 106.578 160.58 107.998 160.58C108.798 160.58 109.468 160.93 109.848 161.49V158.5H110.678V166H110.018L109.928 164.98C109.578 165.67 108.878 166.11 108.008 166.11ZM108.138 165.39C109.148 165.39 109.848 164.53 109.848 163.3C109.848 162.11 109.168 161.29 108.188 161.29C107.168 161.29 106.458 162.12 106.458 163.32C106.458 164.54 107.148 165.39 108.138 165.39ZM116.295 166.11C115.035 166.11 114.105 165.45 114.035 164.33H114.845C114.905 165.02 115.535 165.4 116.335 165.4C117.085 165.4 117.445 165.11 117.445 164.58C117.445 164.08 117.055 163.97 116.505 163.78L115.735 163.52C114.955 163.26 114.175 163.02 114.175 162.06C114.175 161.16 114.875 160.58 116.035 160.58C117.205 160.58 118.015 161.21 118.145 162.39H117.335C117.245 161.65 116.725 161.29 116.005 161.29C115.355 161.29 114.975 161.58 114.975 162.04C114.975 162.59 115.555 162.7 115.995 162.85L116.715 163.09C117.685 163.41 118.265 163.74 118.265 164.62C118.265 165.55 117.585 166.11 116.295 166.11ZM121.215 166.11C119.925 166.11 119.185 165.32 119.185 164.24V160.7H120.015V164.21C120.015 164.97 120.545 165.38 121.295 165.38C122.285 165.38 122.825 164.72 122.835 163.92V160.7H123.665V166H123.005L122.935 165.2C122.585 165.8 121.945 166.11 121.215 166.11ZM125.858 166H125.028V160.7H125.688L125.768 161.52C126.128 160.95 126.818 160.58 127.578 160.58C128.378 160.58 128.978 160.99 129.248 161.63C129.588 161.01 130.318 160.58 131.128 160.58C132.248 160.58 132.968 161.37 132.968 162.45V166H132.138V162.48C132.138 161.77 131.698 161.31 130.988 161.31C129.998 161.31 129.418 161.97 129.408 162.78V166H128.588V162.48C128.588 161.77 128.148 161.31 127.438 161.31C126.448 161.31 125.868 161.97 125.858 162.78V166ZM135.096 166H134.266V160.7H134.926L135.006 161.52C135.366 160.95 136.056 160.58 136.816 160.58C137.616 160.58 138.216 160.99 138.486 161.63C138.826 161.01 139.556 160.58 140.366 160.58C141.486 160.58 142.206 161.37 142.206 162.45V166H141.376V162.48C141.376 161.77 140.936 161.31 140.226 161.31C139.236 161.31 138.656 161.97 138.646 162.78V166H137.826V162.48C137.826 161.77 137.386 161.31 136.676 161.31C135.686 161.31 135.106 161.97 135.096 162.78V166ZM145.214 166.08C144.014 166.08 143.244 165.46 143.244 164.49C143.244 163.27 144.424 163.04 145.484 162.93C146.294 162.85 146.994 162.86 147.004 162.43C146.994 161.76 146.444 161.29 145.644 161.29C144.874 161.29 144.274 161.72 144.184 162.35H143.364C143.464 161.31 144.404 160.58 145.664 160.58C146.974 160.58 147.814 161.36 147.814 162.48V165.06C147.814 165.23 147.904 165.32 148.084 165.32H148.384V166H147.914C147.344 166 147.044 165.74 147.044 165.25V165.09C146.734 165.7 146.134 166.08 145.214 166.08ZM145.334 165.37C146.324 165.37 147.004 164.74 147.004 163.86V163.17C146.774 163.48 146.184 163.54 145.534 163.61C144.804 163.69 144.074 163.79 144.074 164.47C144.074 165.02 144.574 165.37 145.334 165.37ZM150.145 166H149.315V160.7H149.975L150.075 161.71C150.415 161.03 151.035 160.67 151.915 160.67H152.095V161.49H151.915C150.795 161.49 150.145 162.13 150.145 163.22V166ZM153.832 168H152.982V167.3H153.832C154.372 167.3 154.602 167.11 154.722 166.79L155.012 166H154.812L152.712 160.7H153.602L155.322 165.17L156.982 160.7H157.832L155.452 167.11C155.232 167.69 154.742 168 153.832 168ZM161.375 159.81C161.025 159.81 160.755 159.54 160.755 159.19C160.755 158.84 161.025 158.58 161.375 158.58C161.725 158.58 161.985 158.84 161.985 159.19C161.985 159.54 161.725 159.81 161.375 159.81ZM161.785 166H160.955V160.7H161.785V166ZM165.123 166.11C163.863 166.11 162.933 165.45 162.863 164.33H163.673C163.733 165.02 164.363 165.4 165.163 165.4C165.913 165.4 166.273 165.11 166.273 164.58C166.273 164.08 165.883 163.97 165.333 163.78L164.563 163.52C163.783 163.26 163.003 163.02 163.003 162.06C163.003 161.16 163.703 160.58 164.863 160.58C166.033 160.58 166.843 161.21 166.973 162.39H166.163C166.073 161.65 165.553 161.29 164.833 161.29C164.183 161.29 163.803 161.58 163.803 162.04C163.803 162.59 164.383 162.7 164.823 162.85L165.543 163.09C166.513 163.41 167.093 163.74 167.093 164.62C167.093 165.55 166.413 166.11 165.123 166.11ZM172.67 168.12C171.24 168.12 170.27 167.43 170.27 166.31H171.1C171.1 166.94 171.74 167.42 172.67 167.42C173.76 167.42 174.33 166.77 174.33 165.86V165C173.96 165.55 173.32 165.91 172.51 165.91C171.1 165.91 170.09 164.83 170.09 163.27C170.09 161.68 171.11 160.58 172.51 160.58C173.36 160.58 174.05 160.98 174.41 161.62L174.5 160.7H175.15V165.86C175.15 167.2 174.25 168.12 172.67 168.12ZM172.63 165.19C173.63 165.19 174.33 164.39 174.33 163.24C174.33 162.1 173.63 161.3 172.63 161.3C171.64 161.3 170.95 162.1 170.95 163.26C170.95 164.4 171.64 165.19 172.63 165.19ZM178.852 166.11C177.282 166.11 176.242 164.96 176.242 163.37C176.242 161.56 177.412 160.58 178.752 160.58C180.212 160.58 181.152 161.56 181.182 163.26V163.49H177.072C177.122 164.62 177.782 165.39 178.852 165.39C179.592 165.39 180.132 165.02 180.352 164.33H181.162C180.922 165.42 180.062 166.11 178.852 166.11ZM177.122 162.8H180.312C180.162 161.87 179.602 161.3 178.752 161.3C177.912 161.3 177.292 161.85 177.122 162.8ZM183.104 166H182.274V160.7H182.934L183.014 161.51C183.374 160.95 184.064 160.58 184.854 160.58C185.994 160.58 186.754 161.32 186.754 162.49V166H185.924V162.52C185.924 161.78 185.444 161.31 184.644 161.31C183.694 161.31 183.114 161.97 183.104 162.78V166ZM190.395 166.11C188.825 166.11 187.785 164.96 187.785 163.37C187.785 161.56 188.955 160.58 190.295 160.58C191.755 160.58 192.695 161.56 192.725 163.26V163.49H188.615C188.665 164.62 189.325 165.39 190.395 165.39C191.135 165.39 191.675 165.02 191.895 164.33H192.705C192.465 165.42 191.605 166.11 190.395 166.11ZM188.665 162.8H191.855C191.705 161.87 191.145 161.3 190.295 161.3C189.455 161.3 188.835 161.85 188.665 162.8ZM194.647 166H193.817V160.7H194.477L194.577 161.71C194.917 161.03 195.537 160.67 196.417 160.67H196.597V161.49H196.417C195.297 161.49 194.647 162.13 194.647 163.22V166ZM199.14 166.08C197.94 166.08 197.17 165.46 197.17 164.49C197.17 163.27 198.35 163.04 199.41 162.93C200.22 162.85 200.92 162.86 200.93 162.43C200.92 161.76 200.37 161.29 199.57 161.29C198.8 161.29 198.2 161.72 198.11 162.35H197.29C197.39 161.31 198.33 160.58 199.59 160.58C200.9 160.58 201.74 161.36 201.74 162.48V165.06C201.74 165.23 201.83 165.32 202.01 165.32H202.31V166H201.84C201.27 166 200.97 165.74 200.97 165.25V165.09C200.66 165.7 200.06 166.08 199.14 166.08ZM199.26 165.37C200.25 165.37 200.93 164.74 200.93 163.86V163.17C200.7 163.48 200.11 163.54 199.46 163.61C198.73 163.69 198 163.79 198 164.47C198 165.02 198.5 165.37 199.26 165.37ZM205.864 166H205.274C204.244 166 203.694 165.47 203.694 164.49V161.4H202.714V160.7H203.694V158.89H204.524V160.7H205.954V161.4H204.524V164.49C204.524 165.02 204.784 165.3 205.274 165.3H205.864V166ZM209.145 166.11C207.575 166.11 206.535 164.96 206.535 163.37C206.535 161.56 207.705 160.58 209.045 160.58C210.505 160.58 211.445 161.56 211.475 163.26V163.49H207.365C207.415 164.62 208.075 165.39 209.145 165.39C209.885 165.39 210.425 165.02 210.645 164.33H211.455C211.215 165.42 210.355 166.11 209.145 166.11ZM207.415 162.8H210.605C210.455 161.87 209.895 161.3 209.045 161.3C208.205 161.3 207.585 161.85 207.415 162.8ZM214.707 166.11C213.287 166.11 212.297 164.97 212.297 163.32C212.297 161.7 213.277 160.58 214.697 160.58C215.497 160.58 216.167 160.93 216.547 161.49V158.5H217.377V166H216.717L216.627 164.98C216.277 165.67 215.577 166.11 214.707 166.11ZM214.837 165.39C215.847 165.39 216.547 164.53 216.547 163.3C216.547 162.11 215.867 161.29 214.887 161.29C213.867 161.29 213.157 162.12 213.157 163.32C213.157 164.54 213.847 165.39 214.837 165.39Z" fill="#919191"/>
<circle cx="8" cy="77.5657" r="8" transform="rotate(-90 8 77.5657)" fill="#E2E2E2"/>
<circle cx="8" cy="163.566" r="8" transform="rotate(-90 8 163.566)" fill="#E2E2E2"/>
<circle cx="8" cy="120.566" r="8" transform="rotate(-90 8 120.566)" fill="#E2E2E2"/>
<circle cx="8" cy="205.828" r="8" transform="rotate(-90 8 205.828)" fill="url(#paint1_linear_114_2836)"/>
<g style="mix-blend-mode:luminosity">
<path d="M69.69 39H68.85V32H69.9L72.37 38L74.83 32H75.89V39H75.05V33.46L72.77 39H71.96L69.69 33.48V39ZM79.7602 39.11C78.1902 39.11 77.1502 37.96 77.1502 36.37C77.1502 34.56 78.3202 33.58 79.6602 33.58C81.1202 33.58 82.0602 34.56 82.0902 36.26V36.49H77.9802C78.0302 37.62 78.6902 38.39 79.7602 38.39C80.5002 38.39 81.0402 38.02 81.2602 37.33H82.0702C81.8302 38.42 80.9702 39.11 79.7602 39.11ZM78.0302 35.8H81.2202C81.0702 34.87 80.5102 34.3 79.6602 34.3C78.8202 34.3 78.2002 34.85 78.0302 35.8ZM85.522 39.11C83.952 39.11 82.912 37.96 82.912 36.37C82.912 34.56 84.082 33.58 85.422 33.58C86.882 33.58 87.822 34.56 87.852 36.26V36.49H83.742C83.792 37.62 84.452 38.39 85.522 38.39C86.262 38.39 86.802 38.02 87.022 37.33H87.832C87.592 38.42 86.732 39.11 85.522 39.11ZM83.792 35.8H86.982C86.832 34.87 86.272 34.3 85.422 34.3C84.582 34.3 83.962 34.85 83.792 35.8ZM91.567 39H90.977C89.947 39 89.397 38.47 89.397 37.49V34.4H88.417V33.7H89.397V31.89H90.227V33.7H91.657V34.4H90.227V37.49C90.227 38.02 90.487 38.3 90.977 38.3H91.567V39ZM93.0551 32.81C92.7051 32.81 92.4351 32.54 92.4351 32.19C92.4351 31.84 92.7051 31.58 93.0551 31.58C93.4051 31.58 93.6651 31.84 93.6651 32.19C93.6651 32.54 93.4051 32.81 93.0551 32.81ZM93.4651 39H92.6351V33.7H93.4651V39ZM95.6526 39H94.8226V33.7H95.4826L95.5626 34.51C95.9226 33.95 96.6126 33.58 97.4026 33.58C98.5426 33.58 99.3026 34.32 99.3026 35.49V39H98.4726V35.52C98.4726 34.78 97.9926 34.31 97.1926 34.31C96.2426 34.31 95.6626 34.97 95.6526 35.78V39ZM102.914 41.12C101.484 41.12 100.514 40.43 100.514 39.31H101.344C101.344 39.94 101.984 40.42 102.914 40.42C104.004 40.42 104.574 39.77 104.574 38.86V38C104.204 38.55 103.564 38.91 102.754 38.91C101.344 38.91 100.334 37.83 100.334 36.27C100.334 34.68 101.354 33.58 102.754 33.58C103.604 33.58 104.294 33.98 104.654 34.62L104.744 33.7H105.394V38.86C105.394 40.2 104.494 41.12 102.914 41.12ZM102.874 38.19C103.874 38.19 104.574 37.39 104.574 36.24C104.574 35.1 103.874 34.3 102.874 34.3C101.884 34.3 101.194 35.1 101.194 36.26C101.194 37.4 101.884 38.19 102.874 38.19ZM110.712 39.08C109.512 39.08 108.742 38.46 108.742 37.49C108.742 36.27 109.922 36.04 110.982 35.93C111.792 35.85 112.492 35.86 112.502 35.43C112.492 34.76 111.942 34.29 111.142 34.29C110.372 34.29 109.772 34.72 109.682 35.35H108.862C108.962 34.31 109.902 33.58 111.162 33.58C112.472 33.58 113.312 34.36 113.312 35.48V38.06C113.312 38.23 113.402 38.32 113.582 38.32H113.882V39H113.412C112.842 39 112.542 38.74 112.542 38.25V38.09C112.232 38.7 111.632 39.08 110.712 39.08ZM110.832 38.37C111.822 38.37 112.502 37.74 112.502 36.86V36.17C112.272 36.48 111.682 36.54 111.032 36.61C110.302 36.69 109.572 36.79 109.572 37.47C109.572 38.02 110.072 38.37 110.832 38.37ZM117.183 39.11C115.463 39.11 114.543 37.85 114.543 36.32C114.543 34.54 115.713 33.58 117.153 33.58C118.483 33.58 119.433 34.38 119.583 35.74H118.773C118.633 34.86 118.023 34.3 117.133 34.3C116.083 34.3 115.383 35.07 115.383 36.32C115.383 37.67 116.203 38.39 117.193 38.39C118.043 38.39 118.623 37.85 118.773 36.93H119.583C119.433 38.3 118.553 39.11 117.183 39.11ZM123.042 39.11C121.322 39.11 120.402 37.85 120.402 36.32C120.402 34.54 121.572 33.58 123.012 33.58C124.342 33.58 125.292 34.38 125.442 35.74H124.632C124.492 34.86 123.882 34.3 122.992 34.3C121.942 34.3 121.242 35.07 121.242 36.32C121.242 37.67 122.062 38.39 123.052 38.39C123.902 38.39 124.482 37.85 124.632 36.93H125.442C125.292 38.3 124.412 39.11 123.042 39.11ZM128.872 39.11C127.302 39.11 126.262 37.96 126.262 36.37C126.262 34.56 127.432 33.58 128.772 33.58C130.232 33.58 131.172 34.56 131.202 36.26V36.49H127.092C127.142 37.62 127.802 38.39 128.872 38.39C129.612 38.39 130.152 38.02 130.372 37.33H131.182C130.942 38.42 130.082 39.11 128.872 39.11ZM127.142 35.8H130.332C130.182 34.87 129.622 34.3 128.772 34.3C127.932 34.3 127.312 34.85 127.142 35.8ZM133.143 41H132.313V33.7H132.973L133.063 34.66C133.443 34 134.143 33.58 135.003 33.58C136.403 33.58 137.383 34.7 137.383 36.32C137.383 37.97 136.403 39.11 135.003 39.11C134.193 39.11 133.523 38.74 133.143 38.12V41ZM134.873 38.39C135.853 38.39 136.523 37.54 136.523 36.32C136.523 35.13 135.853 34.3 134.863 34.3C133.863 34.3 133.143 35.11 133.143 36.28C133.143 37.52 133.863 38.39 134.873 38.39ZM141.098 39H140.508C139.478 39 138.928 38.47 138.928 37.49V34.4H137.948V33.7H138.928V31.89H139.758V33.7H141.188V34.4H139.758V37.49C139.758 38.02 140.018 38.3 140.508 38.3H141.098V39ZM144.379 39.11C142.809 39.11 141.769 37.96 141.769 36.37C141.769 34.56 142.939 33.58 144.279 33.58C145.739 33.58 146.679 34.56 146.709 36.26V36.49H142.599C142.649 37.62 143.309 38.39 144.379 38.39C145.119 38.39 145.659 38.02 145.879 37.33H146.689C146.449 38.42 145.589 39.11 144.379 39.11ZM142.649 35.8H145.839C145.689 34.87 145.129 34.3 144.279 34.3C143.439 34.3 142.819 34.85 142.649 35.8ZM149.941 39.11C148.521 39.11 147.531 37.97 147.531 36.32C147.531 34.7 148.511 33.58 149.931 33.58C150.731 33.58 151.401 33.93 151.781 34.49V31.5H152.611V39H151.951L151.861 37.98C151.511 38.67 150.811 39.11 149.941 39.11ZM150.071 38.39C151.081 38.39 151.781 37.53 151.781 36.3C151.781 35.11 151.101 34.29 150.121 34.29C149.101 34.29 148.391 35.12 148.391 36.32C148.391 37.54 149.081 38.39 150.071 38.39ZM157.958 39.08C156.758 39.08 155.988 38.46 155.988 37.49C155.988 36.27 157.168 36.04 158.228 35.93C159.038 35.85 159.738 35.86 159.748 35.43C159.738 34.76 159.188 34.29 158.388 34.29C157.618 34.29 157.018 34.72 156.928 35.35H156.108C156.208 34.31 157.148 33.58 158.408 33.58C159.718 33.58 160.558 34.36 160.558 35.48V38.06C160.558 38.23 160.648 38.32 160.828 38.32H161.128V39H160.658C160.088 39 159.788 38.74 159.788 38.25V38.09C159.478 38.7 158.878 39.08 157.958 39.08ZM158.078 38.37C159.068 38.37 159.748 37.74 159.748 36.86V36.17C159.518 36.48 158.928 36.54 158.278 36.61C157.548 36.69 156.818 36.79 156.818 37.47C156.818 38.02 157.318 38.37 158.078 38.37ZM164.039 39.11C162.779 39.11 161.849 38.45 161.779 37.33H162.589C162.649 38.02 163.279 38.4 164.079 38.4C164.829 38.4 165.189 38.11 165.189 37.58C165.189 37.08 164.799 36.97 164.249 36.78L163.479 36.52C162.699 36.26 161.919 36.02 161.919 35.06C161.919 34.16 162.619 33.58 163.779 33.58C164.949 33.58 165.759 34.21 165.889 35.39H165.079C164.989 34.65 164.469 34.29 163.749 34.29C163.099 34.29 162.719 34.58 162.719 35.04C162.719 35.59 163.299 35.7 163.739 35.85L164.459 36.09C165.429 36.41 166.009 36.74 166.009 37.62C166.009 38.55 165.329 39.11 164.039 39.11ZM171.586 41.12C170.156 41.12 169.186 40.43 169.186 39.31H170.016C170.016 39.94 170.656 40.42 171.586 40.42C172.676 40.42 173.246 39.77 173.246 38.86V38C172.876 38.55 172.236 38.91 171.426 38.91C170.016 38.91 169.006 37.83 169.006 36.27C169.006 34.68 170.026 33.58 171.426 33.58C172.276 33.58 172.966 33.98 173.326 34.62L173.416 33.7H174.066V38.86C174.066 40.2 173.166 41.12 171.586 41.12ZM171.546 38.19C172.546 38.19 173.246 37.39 173.246 36.24C173.246 35.1 172.546 34.3 171.546 34.3C170.556 34.3 169.866 35.1 169.866 36.26C169.866 37.4 170.556 38.19 171.546 38.19ZM176.288 39H175.458V31.5H176.288V34.38C176.668 33.9 177.318 33.58 178.038 33.58C179.178 33.58 179.938 34.32 179.938 35.49V39H179.108V35.52C179.108 34.78 178.628 34.31 177.878 34.31C176.878 34.31 176.298 34.97 176.288 35.78V39ZM183.569 39.11C181.869 39.11 180.969 37.9 180.969 36.3C180.969 34.53 182.129 33.58 183.569 33.58C185.259 33.58 186.169 34.8 186.169 36.3C186.169 38.13 185.059 39.11 183.569 39.11ZM183.569 38.39C184.699 38.39 185.319 37.45 185.319 36.3C185.319 35.11 184.629 34.3 183.569 34.3C182.509 34.3 181.819 35.11 181.819 36.3C181.819 37.66 182.609 38.39 183.569 38.39ZM189.234 39.11C187.974 39.11 187.044 38.45 186.974 37.33H187.784C187.844 38.02 188.474 38.4 189.274 38.4C190.024 38.4 190.384 38.11 190.384 37.58C190.384 37.08 189.994 36.97 189.444 36.78L188.674 36.52C187.894 36.26 187.114 36.02 187.114 35.06C187.114 34.16 187.814 33.58 188.974 33.58C190.144 33.58 190.954 34.21 191.084 35.39H190.274C190.184 34.65 189.664 34.29 188.944 34.29C188.294 34.29 187.914 34.58 187.914 35.04C187.914 35.59 188.494 35.7 188.934 35.85L189.654 36.09C190.624 36.41 191.204 36.74 191.204 37.62C191.204 38.55 190.524 39.11 189.234 39.11ZM194.848 39H194.258C193.228 39 192.678 38.47 192.678 37.49V34.4H191.698V33.7H192.678V31.89H193.508V33.7H194.938V34.4H193.508V37.49C193.508 38.02 193.768 38.3 194.258 38.3H194.848V39Z" fill="url(#paint2_linear_114_2836)"/>
</g>
<rect x="61.5" y="192.5" width="163" height="21" rx="4.5" fill="#F0F0F0"/>
<path d="M80.1805 207.11C78.0305 207.11 76.7605 205.6 76.7605 203.48C76.7605 201.4 78.0305 199.89 80.1805 199.89C81.9605 199.89 83.1805 200.93 83.4805 202.69H82.6105C82.3505 201.41 81.4505 200.66 80.1805 200.66C78.6105 200.66 77.6405 201.75 77.6405 203.48C77.6405 205.27 78.6105 206.34 80.1805 206.34C81.4905 206.34 82.3405 205.63 82.6105 204.31H83.4805C83.1705 206.13 82.0105 207.11 80.1805 207.11ZM86.4037 207.08C85.2037 207.08 84.4337 206.46 84.4337 205.49C84.4337 204.27 85.6137 204.04 86.6737 203.93C87.4837 203.85 88.1837 203.86 88.1937 203.43C88.1837 202.76 87.6337 202.29 86.8337 202.29C86.0637 202.29 85.4637 202.72 85.3737 203.35H84.5537C84.6537 202.31 85.5937 201.58 86.8537 201.58C88.1637 201.58 89.0037 202.36 89.0037 203.48V206.06C89.0037 206.23 89.0937 206.32 89.2737 206.32H89.5737V207H89.1037C88.5337 207 88.2337 206.74 88.2337 206.25V206.09C87.9237 206.7 87.3237 207.08 86.4037 207.08ZM86.5237 206.37C87.5137 206.37 88.1937 205.74 88.1937 204.86V204.17C87.9637 204.48 87.3737 204.54 86.7237 204.61C85.9937 204.69 85.2637 204.79 85.2637 205.47C85.2637 206.02 85.7637 206.37 86.5237 206.37ZM91.3642 207H90.5342V199.5H91.3642V207ZM93.6103 207H92.7803V199.5H93.6103V207ZM99.2225 207.11C97.9625 207.11 97.0325 206.45 96.9625 205.33H97.7725C97.8325 206.02 98.4625 206.4 99.2625 206.4C100.013 206.4 100.373 206.11 100.373 205.58C100.373 205.08 99.9825 204.97 99.4325 204.78L98.6625 204.52C97.8825 204.26 97.1025 204.02 97.1025 203.06C97.1025 202.16 97.8025 201.58 98.9625 201.58C100.133 201.58 100.943 202.21 101.073 203.39H100.263C100.173 202.65 99.6525 202.29 98.9325 202.29C98.2825 202.29 97.9025 202.58 97.9025 203.04C97.9025 203.59 98.4825 203.7 98.9225 203.85L99.6425 204.09C100.613 204.41 101.193 204.74 101.193 205.62C101.193 206.55 100.513 207.11 99.2225 207.11ZM104.143 207.11C102.853 207.11 102.113 206.32 102.113 205.24V201.7H102.943V205.21C102.943 205.97 103.473 206.38 104.223 206.38C105.213 206.38 105.753 205.72 105.763 204.92V201.7H106.593V207H105.933L105.863 206.2C105.513 206.8 104.873 207.11 104.143 207.11ZM108.785 207H107.955V201.7H108.615L108.695 202.52C109.055 201.95 109.745 201.58 110.505 201.58C111.305 201.58 111.905 201.99 112.175 202.63C112.515 202.01 113.245 201.58 114.055 201.58C115.175 201.58 115.895 202.37 115.895 203.45V207H115.065V203.48C115.065 202.77 114.625 202.31 113.915 202.31C112.925 202.31 112.345 202.97 112.335 203.78V207H111.515V203.48C111.515 202.77 111.075 202.31 110.365 202.31C109.375 202.31 108.795 202.97 108.785 203.78V207ZM118.024 207H117.194V201.7H117.854L117.934 202.52C118.294 201.95 118.984 201.58 119.744 201.58C120.544 201.58 121.144 201.99 121.414 202.63C121.754 202.01 122.484 201.58 123.294 201.58C124.414 201.58 125.134 202.37 125.134 203.45V207H124.304V203.48C124.304 202.77 123.864 202.31 123.154 202.31C122.164 202.31 121.584 202.97 121.574 203.78V207H120.754V203.48C120.754 202.77 120.314 202.31 119.604 202.31C118.614 202.31 118.034 202.97 118.024 203.78V207ZM128.142 207.08C126.942 207.08 126.172 206.46 126.172 205.49C126.172 204.27 127.352 204.04 128.412 203.93C129.222 203.85 129.922 203.86 129.932 203.43C129.922 202.76 129.372 202.29 128.572 202.29C127.802 202.29 127.202 202.72 127.112 203.35H126.292C126.392 202.31 127.332 201.58 128.592 201.58C129.902 201.58 130.742 202.36 130.742 203.48V206.06C130.742 206.23 130.832 206.32 131.012 206.32H131.312V207H130.842C130.272 207 129.972 206.74 129.972 206.25V206.09C129.662 206.7 129.062 207.08 128.142 207.08ZM128.262 206.37C129.252 206.37 129.932 205.74 129.932 204.86V204.17C129.702 204.48 129.112 204.54 128.462 204.61C127.732 204.69 127.002 204.79 127.002 205.47C127.002 206.02 127.502 206.37 128.262 206.37ZM133.073 207H132.243V201.7H132.903L133.003 202.71C133.343 202.03 133.963 201.67 134.843 201.67H135.023V202.49H134.843C133.723 202.49 133.073 203.13 133.073 204.22V207ZM136.759 209H135.909V208.3H136.759C137.299 208.3 137.529 208.11 137.649 207.79L137.939 207H137.739L135.639 201.7H136.529L138.249 206.17L139.909 201.7H140.759L138.379 208.11C138.159 208.69 137.669 209 136.759 209ZM146.023 207.11C144.603 207.11 143.613 205.97 143.613 204.32C143.613 202.7 144.593 201.58 146.013 201.58C146.813 201.58 147.483 201.93 147.863 202.49V199.5H148.693V207H148.033L147.943 205.98C147.593 206.67 146.893 207.11 146.023 207.11ZM146.153 206.39C147.163 206.39 147.863 205.53 147.863 204.3C147.863 203.11 147.183 202.29 146.203 202.29C145.183 202.29 144.473 203.12 144.473 204.32C144.473 205.54 145.163 206.39 146.153 206.39ZM150.504 200.81C150.154 200.81 149.884 200.54 149.884 200.19C149.884 199.84 150.154 199.58 150.504 199.58C150.854 199.58 151.114 199.84 151.114 200.19C151.114 200.54 150.854 200.81 150.504 200.81ZM150.914 207H150.084V201.7H150.914V207ZM154.252 207.11C152.992 207.11 152.062 206.45 151.992 205.33H152.802C152.862 206.02 153.492 206.4 154.292 206.4C155.042 206.4 155.402 206.11 155.402 205.58C155.402 205.08 155.012 204.97 154.462 204.78L153.692 204.52C152.912 204.26 152.132 204.02 152.132 203.06C152.132 202.16 152.832 201.58 153.992 201.58C155.162 201.58 155.972 202.21 156.102 203.39H155.292C155.202 202.65 154.682 202.29 153.962 202.29C153.312 202.29 152.932 202.58 152.932 203.04C152.932 203.59 153.512 203.7 153.952 203.85L154.672 204.09C155.642 204.41 156.222 204.74 156.222 205.62C156.222 206.55 155.542 207.11 154.252 207.11ZM159.866 207H159.276C158.246 207 157.696 206.47 157.696 205.49V202.4H156.716V201.7H157.696V199.89H158.526V201.7H159.956V202.4H158.526V205.49C158.526 206.02 158.786 206.3 159.276 206.3H159.866V207ZM161.764 207H160.934V201.7H161.594L161.694 202.71C162.034 202.03 162.654 201.67 163.534 201.67H163.714V202.49H163.534C162.414 202.49 161.764 203.13 161.764 204.22V207ZM165.084 200.81C164.734 200.81 164.464 200.54 164.464 200.19C164.464 199.84 164.734 199.58 165.084 199.58C165.434 199.58 165.694 199.84 165.694 200.19C165.694 200.54 165.434 200.81 165.084 200.81ZM165.494 207H164.664V201.7H165.494V207ZM169.572 207.11C168.702 207.11 167.992 206.68 167.632 205.99L167.542 207H166.882V199.5H167.712V202.53C168.102 201.95 168.772 201.58 169.572 201.58C170.972 201.58 171.952 202.7 171.952 204.32C171.952 205.97 170.972 207.11 169.572 207.11ZM169.442 206.39C170.422 206.39 171.092 205.54 171.092 204.32C171.092 203.13 170.422 202.3 169.432 202.3C168.432 202.3 167.712 203.11 167.712 204.28C167.712 205.52 168.432 206.39 169.442 206.39ZM174.973 207.11C173.683 207.11 172.943 206.32 172.943 205.24V201.7H173.773V205.21C173.773 205.97 174.303 206.38 175.053 206.38C176.043 206.38 176.583 205.72 176.593 204.92V201.7H177.423V207H176.763L176.693 206.2C176.343 206.8 175.703 207.11 174.973 207.11ZM181.545 207H180.955C179.925 207 179.375 206.47 179.375 205.49V202.4H178.395V201.7H179.375V199.89H180.205V201.7H181.635V202.4H180.205V205.49C180.205 206.02 180.465 206.3 180.955 206.3H181.545V207ZM184.827 207.11C183.257 207.11 182.217 205.96 182.217 204.37C182.217 202.56 183.387 201.58 184.727 201.58C186.187 201.58 187.127 202.56 187.157 204.26V204.49H183.047C183.097 205.62 183.757 206.39 184.827 206.39C185.567 206.39 186.107 206.02 186.327 205.33H187.137C186.897 206.42 186.037 207.11 184.827 207.11ZM183.097 203.8H186.287C186.137 202.87 185.577 202.3 184.727 202.3C183.887 202.3 183.267 202.85 183.097 203.8ZM190.388 207.11C188.968 207.11 187.978 205.97 187.978 204.32C187.978 202.7 188.958 201.58 190.378 201.58C191.178 201.58 191.848 201.93 192.228 202.49V199.5H193.058V207H192.398L192.308 205.98C191.958 206.67 191.258 207.11 190.388 207.11ZM190.518 206.39C191.528 206.39 192.228 205.53 192.228 204.3C192.228 203.11 191.548 202.29 190.568 202.29C189.548 202.29 188.838 203.12 188.838 204.32C188.838 205.54 189.528 206.39 190.518 206.39Z" fill="url(#paint3_linear_114_2836)"/>
<rect x="61.5" y="192.5" width="163" height="21" rx="4.5" stroke="url(#paint4_linear_114_2836)"/>
<path d="M201.333 203.667L204 206.333L210.667 199.667" stroke="url(#paint5_linear_114_2836)" stroke-linecap="round" stroke-linejoin="round"/>
<path d="M219.357 32.4684C219.357 25.1772 209.643 25.1772 209.643 32.4684V33.6835H208.325C207.853 33.6835 207.659 34.2903 208.043 34.565L209.643 35.7089C209.373 36.6543 208.267 38.7063 206 39.3544C206.27 39.7595 207.052 40.5696 208.024 40.5696L208.833 41.7848L210.857 41.3797C211.531 41.9201 213.205 43 214.5 43C215.795 43 217.469 41.9201 218.143 41.3797L220.167 41.7848L220.976 40.5696C221.948 40.5696 222.73 39.7595 223 39.3544C220.733 38.7063 219.627 36.6543 219.357 35.7089L220.675 36.3081C221.06 36.0334 221.147 35.2354 220.675 35.2354L219.357 33.6835V32.4684Z" stroke="#A9B2BA" stroke-width="1.5" stroke-linecap="round" stroke-linejoin="round"/>
<path d="M131 214L131 225.569C131 227.464 129.464 229 127.569 229L105.431 229C103.536 229 102 230.536 102 232.431L102 238.069C102 239.964 103.536 241.5 105.431 241.5L127.569 241.5C129.464 241.5 131 243.036 131 244.931L131 254.069C131 255.964 132.536 257.5 134.431 257.5L167.569 257.5C169.464 257.5 171 259.036 171 260.931L171 291.5" stroke="url(#paint6_linear_114_2836)"/>
<path d="M131 221L131 232.069C131 233.964 132.536 235.5 134.431 235.5L217.569 235.5C219.464 235.5 221 237.036 221 238.931L221 245.069C221 246.964 219.464 248.5 217.569 248.5L213.431 248.5C211.536 248.5 210 250.036 210 251.931L210 254.069C210 255.964 211.536 257.5 213.431 257.5L246.569 257.5C248.464 257.5 250 259.036 250 260.931L250 291.5" stroke="url(#paint7_linear_114_2836)"/>
<path d="M131 218L131 220.069C131 221.964 129.464 223.5 127.569 223.5L94.9308 223.5C93.036 223.5 91.5 225.036 91.5 226.931L91.5 258.069C91.5 259.964 93.036 261.5 94.9307 261.5L103.569 261.5C105.464 261.5 107 263.036 107 264.931L107 267.069C107 268.964 105.464 270.5 103.569 270.5L97.4307 270.5C95.536 270.5 94 272.036 94 273.931L94 304.5" stroke="url(#paint8_linear_114_2836)"/>
<defs>
<filter id="filter0_d_114_2836" x="23" y="0" width="241" height="78" filterUnits="userSpaceOnUse" color-interpolation-filters="sRGB">
<feFlood flood-opacity="0" result="BackgroundImageFix"/>
<feColorMatrix in="SourceAlpha" type="matrix" values="0 0 0 0 0 0 0 0 0 0 0 0 0 0 0 0 0 0 127 0" result="hardAlpha"/>
<feOffset dy="4"/>
<feGaussianBlur stdDeviation="11.5"/>
<feComposite in2="hardAlpha" operator="out"/>
<feColorMatrix type="matrix" values="0 0 0 0 0 0 0 0 0 0 0 0 0 0 0 0 0 0 0.25 0"/>
<feBlend mode="normal" in2="BackgroundImageFix" result="effect1_dropShadow_114_2836"/>
<feBlend mode="normal" in="SourceGraphic" in2="effect1_dropShadow_114_2836" result="shape"/>
</filter>
<linearGradient id="paint0_linear_114_2836" x1="7.75344" y1="-14.7188" x2="8.93676" y2="-14.7186" gradientUnits="userSpaceOnUse">
<stop stop-color="#067FD0"/>
<stop stop-color="#067FD0"/>
<stop offset="1" stop-color="#E63B60"/>
</linearGradient>
<linearGradient id="paint1_linear_114_2836" x1="-3.94495" y1="193.203" x2="14.96" y2="193.934" gradientUnits="userSpaceOnUse">
<stop stop-color="#067FD0"/>
<stop stop-color="#067FD0"/>
<stop offset="1" stop-color="#E63B60"/>
</linearGradient>
<linearGradient id="paint2_linear_114_2836" x1="36.4404" y1="23.9531" x2="171.102" y2="71.5222" gradientUnits="userSpaceOnUse">
<stop stop-color="#067FD0"/>
<stop stop-color="#067FD0"/>
<stop offset="1" stop-color="#E63B60"/>
</linearGradient>
<linearGradient id="paint3_linear_114_2836" x1="46.906" y1="191.953" x2="173.15" y2="233.065" gradientUnits="userSpaceOnUse">
<stop stop-color="#067FD0"/>
<stop stop-color="#067FD0"/>
<stop offset="1" stop-color="#E63B60"/>
</linearGradient>
<linearGradient id="paint4_linear_114_2836" x1="20.5642" y1="185.641" x2="199.763" y2="237.253" gradientUnits="userSpaceOnUse">
<stop stop-color="#067FD0"/>
<stop stop-color="#067FD0"/>
<stop offset="1" stop-color="#E63B60"/>
</linearGradient>
<linearGradient id="paint5_linear_114_2836" x1="199.032" y1="197.74" x2="210.044" y2="198.335" gradientUnits="userSpaceOnUse">
<stop stop-color="#067FD0"/>
<stop stop-color="#067FD0"/>
<stop offset="1" stop-color="#E63B60"/>
</linearGradient>
<linearGradient id="paint6_linear_114_2836" x1="190.945" y1="194.892" x2="186.973" y2="286.427" gradientUnits="userSpaceOnUse">
<stop stop-color="#067FD0"/>
<stop stop-color="#067FD0"/>
<stop offset="1" stop-color="#E63B60"/>
</linearGradient>
<linearGradient id="paint7_linear_114_2836" x1="284.398" y1="203.618" x2="282.49" y2="286.998" gradientUnits="userSpaceOnUse">
<stop stop-color="#067FD0"/>
<stop stop-color="#067FD0"/>
<stop offset="1" stop-color="#E63B60"/>
</linearGradient>
<linearGradient id="paint8_linear_114_2836" x1="142.418" y1="196.673" x2="133.819" y2="298.302" gradientUnits="userSpaceOnUse">
<stop stop-color="#067FD0"/>
<stop stop-color="#067FD0"/>
<stop offset="1" stop-color="#E63B60"/>
</linearGradient>
<clipPath id="clip0_114_2836">
<rect width="145" height="145" fill="white" transform="translate(72 69)"/>
</clipPath>
</defs>
</svg>
