<svg width="59" height="59" viewBox="0 0 59 59" fill="none" xmlns="http://www.w3.org/2000/svg">
<path d="M28.3398 3.93333C28.4778 3.75748 28.6539 3.6153 28.855 3.51753C29.056 3.41976 29.2766 3.36896 29.5001 3.36896C29.7236 3.36896 29.9443 3.41976 30.1453 3.51753C30.3463 3.6153 30.5224 3.75748 30.6605 3.93333L35.1076 9.58749C35.2881 9.81746 35.5328 9.98861 35.8107 10.0792C36.0887 10.1698 36.3873 10.1758 36.6686 10.0964L43.5888 8.13462C43.8037 8.07338 44.0297 8.06176 44.2497 8.10064C44.4698 8.13951 44.6781 8.22787 44.859 8.35904C45.0398 8.4902 45.1886 8.66075 45.2939 8.8578C45.3992 9.05485 45.4584 9.27326 45.467 9.49653L45.7374 16.6872C45.7488 16.9793 45.8467 17.2614 46.0187 17.4978C46.1907 17.7341 46.4291 17.914 46.7035 18.0147L53.4566 20.4976C53.6662 20.5745 53.8557 20.698 54.0106 20.8588C54.1656 21.0196 54.282 21.2134 54.3511 21.4258C54.4203 21.6381 54.4403 21.8634 54.4097 22.0846C54.379 22.3058 54.2986 22.5171 54.1744 22.7027L50.1673 28.6789C50.0046 28.9218 49.9177 29.2076 49.9177 29.5C49.9177 29.7924 50.0046 30.0782 50.1673 30.3211L54.1744 36.2973C54.2986 36.4829 54.379 36.6942 54.4097 36.9154C54.4403 37.1366 54.4203 37.3619 54.3511 37.5742C54.282 37.7866 54.1656 37.9804 54.0106 38.1412C53.8557 38.302 53.6662 38.4255 53.4566 38.5024L46.7035 40.9853C46.4295 41.0863 46.1917 41.2664 46.0201 41.5028C45.8486 41.7391 45.751 42.021 45.7399 42.3128L45.467 49.5034C45.4584 49.7267 45.3992 49.9451 45.2939 50.1422C45.1886 50.3392 45.0398 50.5098 44.859 50.6409C44.6781 50.7721 44.4698 50.8605 44.2497 50.8993C44.0297 50.9382 43.8037 50.9266 43.5888 50.8654L36.6686 48.9036C36.3872 48.8234 36.0882 48.8287 35.8098 48.9189C35.5314 49.0091 35.2861 49.18 35.1051 49.41L30.6629 55.0667C30.5249 55.2425 30.3487 55.3847 30.1477 55.4824C29.9467 55.5802 29.7261 55.631 29.5026 55.631C29.279 55.631 29.0584 55.5802 28.8574 55.4824C28.6564 55.3847 28.4802 55.2425 28.3422 55.0667L23.8951 49.4125C23.7146 49.1825 23.4699 49.0114 23.1919 48.9208C22.914 48.8302 22.6154 48.8242 22.3341 48.9036L15.4139 50.8654C15.199 50.9266 14.973 50.9382 14.753 50.8993C14.5329 50.8605 14.3246 50.7721 14.1437 50.6409C13.9628 50.5098 13.8141 50.3392 13.7088 50.1422C13.6035 49.9451 13.5443 49.7267 13.5357 49.5034L13.2653 42.3128C13.2539 42.0207 13.156 41.7386 12.984 41.5022C12.812 41.2659 12.5736 41.086 12.2992 40.9853L5.54612 38.5024C5.33647 38.4255 5.14702 38.302 4.99206 38.1412C4.8371 37.9804 4.72067 37.7866 4.65154 37.5742C4.58242 37.3619 4.56241 37.1366 4.59303 36.9154C4.62365 36.6942 4.70408 36.4829 4.82828 36.2973L8.83537 30.3211C8.99813 30.0782 9.08503 29.7924 9.08503 29.5C9.08503 29.2076 8.99813 28.9218 8.83537 28.6789L4.82828 22.7027C4.70408 22.5171 4.62365 22.3058 4.59303 22.0846C4.56241 21.8634 4.58242 21.6381 4.65154 21.4258C4.72067 21.2134 4.8371 21.0196 4.99206 20.8588C5.14702 20.698 5.33647 20.5745 5.54612 20.4976L12.2992 18.0147C12.5732 17.9136 12.811 17.7336 12.9826 17.4972C13.1541 17.2609 13.2517 16.979 13.2628 16.6872L13.5357 9.49653C13.5443 9.27326 13.6035 9.05485 13.7088 8.8578C13.8141 8.66075 13.9628 8.4902 14.1437 8.35904C14.3246 8.22787 14.5329 8.13951 14.753 8.10064C14.973 8.06176 15.199 8.07338 15.4139 8.13462L22.3341 10.0964C22.6154 10.1758 22.914 10.1698 23.1919 10.0792C23.4699 9.98861 23.7146 9.81746 23.8951 9.58749L28.3447 3.93333H28.3398Z" fill="#F9FFFF" stroke="url(#paint0_linear_80_4026)" stroke-width="1.5"/>
<defs>
<linearGradient id="paint0_linear_80_4026" x1="-7.71054" y1="-11.7381" x2="51.1915" y2="-9.56757" gradientUnits="userSpaceOnUse">
<stop stop-color="#067FD0"/>
<stop stop-color="#067FD0"/>
<stop offset="1" stop-color="#E63B60"/>
</linearGradient>
</defs>
</svg>
