<svg width="335" height="143" viewBox="0 0 335 143" fill="none" xmlns="http://www.w3.org/2000/svg">
<ellipse cx="164.472" cy="29.5079" rx="5.66956" ry="5.44762" fill="#E63B60"/>
<ellipse cx="164.472" cy="91.2476" rx="5.66956" ry="5.44762" fill="#E63B60"/>
<ellipse cx="164.472" cy="44.9429" rx="5.66956" ry="5.44762" fill="#E63B60"/>
<ellipse cx="164.472" cy="106.683" rx="5.66956" ry="5.44762" fill="#E63B60"/>
<ellipse cx="164.472" cy="60.3778" rx="5.66956" ry="5.44762" fill="#E63B60"/>
<ellipse cx="164.472" cy="122.117" rx="5.66956" ry="5.44762" fill="#E63B60"/>
<ellipse cx="164.472" cy="75.8127" rx="5.66956" ry="5.44762" fill="#E63B60"/>
<ellipse cx="164.472" cy="137.552" rx="5.66956" ry="5.44762" fill="#E63B60"/>
<path d="M95.9653 29.2809L159.512 138.006M95.9653 29.2809L159.512 122.117M95.9653 29.2809L159.512 106.683M95.9653 29.2809L159.512 91.2476M95.9653 29.2809L159.512 75.8127M95.9653 29.2809L159.512 60.3778M95.9653 29.2809L159.512 44.9428M95.9653 29.2809H159.512M159.512 138.006L95.9653 44.9428M159.512 138.006L95.9653 60.3778M159.512 138.006L95.9653 75.8127M159.512 138.006L95.9653 91.2476M159.512 138.006L95.9653 106.683M159.512 138.006L95.9653 122.117M159.512 138.006H95.9653M95.9653 44.9428L159.512 122.117M95.9653 44.9428L159.512 106.683M95.9653 44.9428L159.512 91.2476M95.9653 44.9428L159.512 75.8127M95.9653 44.9428L159.512 60.3778M95.9653 44.9428H159.512M95.9653 44.9428L159.512 29.2809M95.9653 60.3778L159.512 122.117M95.9653 60.3778L159.512 106.683M95.9653 60.3778L159.512 91.2476M95.9653 60.3778L159.512 75.8127M95.9653 60.3778H159.512M95.9653 60.3778L159.512 44.9428M95.9653 60.3778L159.512 29.2809M95.9653 75.8127L159.512 122.117M95.9653 75.8127L159.512 106.683M95.9653 75.8127L159.512 91.2476M95.9653 75.8127H159.512M95.9653 75.8127L159.512 60.3778M95.9653 75.8127L159.512 44.9428M95.9653 75.8127L159.512 29.2809M95.9653 91.2476L159.512 122.117M95.9653 91.2476L159.512 106.683M95.9653 91.2476H159.512M95.9653 91.2476L159.512 75.8127M95.9653 91.2476L159.512 60.3778M95.9653 91.2476L159.512 44.9428M95.9653 91.2476L159.512 29.2809M95.9653 106.683L159.512 122.117M95.9653 106.683H159.512M95.9653 106.683L159.512 91.2476M95.9653 106.683L159.512 75.8127M95.9653 106.683L159.512 60.3778M95.9653 106.683L159.512 44.9428M95.9653 106.683L159.512 29.2809M95.9653 122.117H159.512M95.9653 122.117L159.512 106.683M95.9653 122.117L159.512 91.2476M95.9653 122.117L159.512 75.8127M95.9653 122.117L159.512 60.3778M95.9653 122.117L159.512 44.9428M95.9653 122.117L159.512 29.2809M95.9653 138.006L159.512 122.117M95.9653 138.006L159.512 106.683M95.9653 138.006L159.512 91.2476M95.9653 138.006L159.512 75.8127M95.9653 138.006L159.512 60.3778M95.9653 138.006L159.512 44.9428M95.9653 138.006L159.512 29.2809" stroke="url(#paint0_linear_44_1031)"/>
<path d="M232.744 29.054L169.197 137.779M232.744 29.054L169.197 121.89M232.744 29.054L169.197 106.456M232.744 29.054L169.197 91.0206M232.744 29.054L169.197 75.5857M232.744 29.054L169.197 60.1508M232.744 29.054L169.197 44.7159M232.744 29.054H169.197M169.197 137.779L232.744 44.7159M169.197 137.779L232.744 60.1508M169.197 137.779L232.744 75.5857M169.197 137.779L232.744 91.0206M169.197 137.779L232.744 106.456M169.197 137.779L232.744 121.89M169.197 137.779H232.744M232.744 44.7159L169.197 121.89M232.744 44.7159L169.197 106.456M232.744 44.7159L169.197 91.0206M232.744 44.7159L169.197 75.5857M232.744 44.7159L169.197 60.1508M232.744 44.7159H169.197M232.744 44.7159L169.197 29.054M232.744 60.1508L169.197 121.89M232.744 60.1508L169.197 106.456M232.744 60.1508L169.197 91.0206M232.744 60.1508L169.197 75.5857M232.744 60.1508H169.197M232.744 60.1508L169.197 44.7159M232.744 60.1508L169.197 29.054M232.744 75.5857L169.197 121.89M232.744 75.5857L169.197 106.456M232.744 75.5857L169.197 91.0206M232.744 75.5857H169.197M232.744 75.5857L169.197 60.1508M232.744 75.5857L169.197 44.7159M232.744 75.5857L169.197 29.054M232.744 91.0206L169.197 121.89M232.744 91.0206L169.197 106.456M232.744 91.0206H169.197M232.744 91.0206L169.197 75.5857M232.744 91.0206L169.197 60.1508M232.744 91.0206L169.197 44.7159M232.744 91.0206L169.197 29.054M232.744 106.456L169.197 121.89M232.744 106.456H169.197M232.744 106.456L169.197 91.0206M232.744 106.456L169.197 75.5857M232.744 106.456L169.197 60.1508M232.744 106.456L169.197 44.7159M232.744 106.456L169.197 29.054M232.744 121.89H169.197M232.744 121.89L169.197 106.456M232.744 121.89L169.197 91.0206M232.744 121.89L169.197 75.5857M232.744 121.89L169.197 60.1508M232.744 121.89L169.197 44.7159M232.744 121.89L169.197 29.054M232.744 137.779L169.197 121.89M232.744 137.779L169.197 106.456M232.744 137.779L169.197 91.0206M232.744 137.779L169.197 75.5857M232.744 137.779L169.197 60.1508M232.744 137.779L169.197 44.7159M232.744 137.779L169.197 29.054" stroke="url(#paint1_linear_44_1031)"/>
<path d="M242.429 29.5079L305.976 122.344M242.429 29.5079L305.976 106.91M242.429 29.5079L305.976 91.4746M242.429 29.5079L305.976 76.0397M242.429 29.5079L305.976 60.6048M242.429 29.5079L305.976 45.1698M242.429 45.1698L305.976 122.344M242.429 45.1698L305.976 106.91M242.429 45.1698L305.976 91.4746M242.429 45.1698L305.976 76.0397M242.429 45.1698L305.976 60.6048M242.429 45.1698H305.976M242.429 60.6048L305.976 122.344M242.429 60.6048L305.976 106.91M242.429 60.6048L305.976 91.4746M242.429 60.6048L305.976 76.0397M242.429 60.6048H305.976M242.429 60.6048L305.976 45.1698M242.429 76.0397L305.976 122.344M242.429 76.0397L305.976 106.91M242.429 76.0397L305.976 91.4746M242.429 76.0397H305.976M242.429 76.0397L305.976 60.6048M242.429 76.0397L305.976 45.1698M242.429 91.4746L305.976 122.344M242.429 91.4746L305.976 106.91M242.429 91.4746H305.976M242.429 91.4746L305.976 76.0397M242.429 91.4746L305.976 60.6048M242.429 91.4746L305.976 45.1698M242.429 106.91L305.976 122.344M242.429 106.91H305.976M242.429 106.91L305.976 91.4746M242.429 106.91L305.976 76.0397M242.429 106.91L305.976 60.6048M242.429 106.91L305.976 45.1698M242.429 122.344H305.976M242.429 122.344L305.976 106.91M242.429 122.344L305.976 91.4746M242.429 122.344L305.976 76.0397M242.429 122.344L305.976 60.6048M242.429 122.344L305.976 45.1698M242.429 138.233L305.976 122.344M242.429 138.233L305.976 106.91M242.429 138.233L305.976 91.4746M242.429 138.233L305.976 76.0397M242.429 138.233L305.976 60.6048M242.429 138.233L305.976 45.1698" stroke="url(#paint2_linear_44_1031)"/>
<path d="M85.0986 29.5079L21.5523 122.344M85.0986 29.5079L21.5523 106.91M85.0986 29.5079L21.5523 91.4746M85.0986 29.5079L21.5523 76.0397M85.0986 29.5079L21.5523 60.6048M85.0986 29.5079L21.5523 45.1698M85.0986 45.1698L21.5523 122.344M85.0986 45.1698L21.5523 106.91M85.0986 45.1698L21.5523 91.4746M85.0986 45.1698L21.5523 76.0397M85.0986 45.1698L21.5523 60.6048M85.0986 45.1698H21.5523M85.0986 60.6048L21.5523 122.344M85.0986 60.6048L21.5523 106.91M85.0986 60.6048L21.5523 91.4746M85.0986 60.6048L21.5523 76.0397M85.0986 60.6048H21.5523M85.0986 60.6048L21.5523 45.1698M85.0986 76.0397L21.5523 122.344M85.0986 76.0397L21.5523 106.91M85.0986 76.0397L21.5523 91.4746M85.0986 76.0397H21.5523M85.0986 76.0397L21.5523 60.6048M85.0986 76.0397L21.5523 45.1698M85.0986 91.4746L21.5523 122.344M85.0986 91.4746L21.5523 106.91M85.0986 91.4746H21.5523M85.0986 91.4746L21.5523 76.0397M85.0986 91.4746L21.5523 60.6048M85.0986 91.4746L21.5523 45.1698M85.0986 106.91L21.5523 122.344M85.0986 106.91H21.5523M85.0986 106.91L21.5523 91.4746M85.0986 106.91L21.5523 76.0397M85.0986 106.91L21.5523 60.6048M85.0986 106.91L21.5523 45.1698M85.0986 122.344H21.5523M85.0986 122.344L21.5523 106.91M85.0986 122.344L21.5523 91.4746M85.0986 122.344L21.5523 76.0397M85.0986 122.344L21.5523 60.6048M85.0986 122.344L21.5523 45.1698M85.0986 138.233L21.5523 122.344M85.0986 138.233L21.5523 106.91M85.0986 138.233L21.5523 91.4746M85.0986 138.233L21.5523 76.0397M85.0986 138.233L21.5523 60.6048M85.0986 138.233L21.5523 45.1698" stroke="url(#paint3_linear_44_1031)"/>
<ellipse cx="90.7682" cy="29.5079" rx="5.66957" ry="5.44762" fill="#067FD0"/>
<ellipse cx="90.7682" cy="91.2476" rx="5.66957" ry="5.44762" fill="#067FD0"/>
<ellipse cx="90.7682" cy="44.9429" rx="5.66957" ry="5.44762" fill="#067FD0"/>
<ellipse cx="90.7682" cy="106.683" rx="5.66957" ry="5.44762" fill="#067FD0"/>
<ellipse cx="90.7682" cy="60.3778" rx="5.66957" ry="5.44762" fill="#067FD0"/>
<ellipse cx="90.7682" cy="122.117" rx="5.66957" ry="5.44762" fill="#067FD0"/>
<ellipse cx="90.7682" cy="75.8127" rx="5.66957" ry="5.44762" fill="#067FD0"/>
<ellipse cx="90.7682" cy="137.552" rx="5.66957" ry="5.44762" fill="#067FD0"/>
<ellipse cx="237.704" cy="29.5079" rx="5.66956" ry="5.44762" fill="#067FD0"/>
<ellipse cx="237.704" cy="91.2476" rx="5.66956" ry="5.44762" fill="#067FD0"/>
<ellipse cx="237.704" cy="44.9429" rx="5.66956" ry="5.44762" fill="#067FD0"/>
<ellipse cx="237.704" cy="106.683" rx="5.66956" ry="5.44762" fill="#067FD0"/>
<ellipse cx="237.704" cy="60.3778" rx="5.66956" ry="5.44762" fill="#067FD0"/>
<ellipse cx="237.704" cy="122.117" rx="5.66956" ry="5.44762" fill="#067FD0"/>
<ellipse cx="237.704" cy="75.8127" rx="5.66956" ry="5.44762" fill="#067FD0"/>
<ellipse cx="237.704" cy="137.552" rx="5.66956" ry="5.44762" fill="#067FD0"/>
<ellipse cx="310.936" cy="91.2476" rx="5.66957" ry="5.44762" fill="#E63B60"/>
<ellipse cx="5.66957" cy="5.44762" rx="5.66957" ry="5.44762" transform="matrix(-1 0 0 1 22.2607 85.8)" fill="#E63B60"/>
<ellipse cx="310.936" cy="44.9429" rx="5.66957" ry="5.44762" fill="#E63B60"/>
<ellipse cx="5.66957" cy="5.44762" rx="5.66957" ry="5.44762" transform="matrix(-1 0 0 1 22.2607 39.4952)" fill="#E63B60"/>
<ellipse cx="310.936" cy="106.683" rx="5.66957" ry="5.44762" fill="#E63B60"/>
<ellipse cx="5.66957" cy="5.44762" rx="5.66957" ry="5.44762" transform="matrix(-1 0 0 1 22.2607 101.235)" fill="#E63B60"/>
<ellipse cx="310.936" cy="60.3778" rx="5.66957" ry="5.44762" fill="#E63B60"/>
<ellipse cx="5.66957" cy="5.44762" rx="5.66957" ry="5.44762" transform="matrix(-1 0 0 1 22.2607 54.9302)" fill="#E63B60"/>
<ellipse cx="310.936" cy="122.117" rx="5.66957" ry="5.44762" fill="#E63B60"/>
<ellipse cx="5.66957" cy="5.44762" rx="5.66957" ry="5.44762" transform="matrix(-1 0 0 1 22.2607 116.67)" fill="#E63B60"/>
<ellipse cx="310.936" cy="75.8127" rx="5.66957" ry="5.44762" fill="#E63B60"/>
<ellipse cx="5.66957" cy="5.44762" rx="5.66957" ry="5.44762" transform="matrix(-1 0 0 1 22.2607 70.3651)" fill="#E63B60"/>
<path d="M4.42734 12.058C2.35734 12.058 0.937344 10.618 0.937344 8.38796C0.937344 6.26796 2.27734 4.75796 4.42734 4.75796C6.50734 4.75796 7.93734 6.18796 7.93734 8.38796C7.93734 10.528 6.58734 12.058 4.42734 12.058ZM4.42734 10.968C5.82734 10.968 6.71734 9.96796 6.71734 8.38796C6.71734 6.82796 5.82734 5.83796 4.42734 5.83796C3.03734 5.83796 2.15734 6.82796 2.15734 8.38796C2.15734 9.96796 3.03734 10.968 4.42734 10.968ZM10.1398 13.908H8.94984V6.60796H9.89984L10.0198 7.47796C10.3698 6.85796 11.0598 6.44796 11.8998 6.44796C13.2998 6.44796 14.2898 7.58796 14.2898 9.22796C14.2898 10.898 13.2998 12.058 11.8898 12.058C11.1298 12.058 10.4998 11.718 10.1398 11.168V13.908ZM11.6298 11.058C12.4898 11.058 13.0798 10.308 13.0798 9.22796C13.0798 8.17796 12.4898 7.44796 11.6198 7.44796C10.7498 7.44796 10.1398 8.16796 10.1398 9.19796C10.1398 10.288 10.7498 11.058 11.6298 11.058ZM18.0931 11.908H17.4131C16.2631 11.908 15.6431 11.338 15.6431 10.288V7.60796H14.7131V6.60796H15.6431V4.79796H16.8231V6.60796H18.1931V7.60796H16.8231V10.208C16.8231 10.658 17.0531 10.908 17.4931 10.908H18.0931V11.908ZM19.647 5.89796C19.217 5.89796 18.887 5.55796 18.887 5.12796C18.887 4.69796 19.217 4.36796 19.647 4.36796C20.087 4.36796 20.407 4.69796 20.407 5.12796C20.407 5.55796 20.087 5.89796 19.647 5.89796ZM20.237 11.908H19.057V6.60796H20.237V11.908ZM23.8798 12.058C22.1598 12.058 21.1598 10.848 21.1598 9.20796C21.1598 7.47796 22.3298 6.44796 23.8798 6.44796C25.5898 6.44796 26.5898 7.64796 26.5898 9.20796C26.5898 10.998 25.4598 12.058 23.8798 12.058ZM23.8798 11.048C24.8298 11.048 25.3898 10.268 25.3898 9.20796C25.3898 8.15796 24.7998 7.45796 23.8798 7.45796C22.9598 7.45796 22.3598 8.15796 22.3598 9.20796C22.3598 10.368 23.0098 11.048 23.8798 11.048ZM28.6941 11.908H27.5141V6.60796H28.4641L28.5641 7.38796C28.8941 6.83796 29.5641 6.44796 30.3541 6.44796C31.4841 6.44796 32.2241 7.20796 32.2241 8.39796V11.908H31.0441V8.45796C31.0441 7.86796 30.6541 7.47796 29.9941 7.47796C29.2241 7.47796 28.7041 8.00796 28.6941 8.69796V11.908ZM38.0216 11.908H36.8216V6.69796C36.4916 7.15796 35.9616 7.39796 35.2416 7.39796H35.1616V6.24796H35.2416C36.2816 6.24796 36.8316 5.81796 36.8316 5.00796V4.90796H38.0216V11.908Z" fill="black"/>
<path d="M77.6593 12.058C75.5893 12.058 74.1693 10.618 74.1693 8.38796C74.1693 6.26796 75.5093 4.75796 77.6593 4.75796C79.7393 4.75796 81.1693 6.18796 81.1693 8.38796C81.1693 10.528 79.8193 12.058 77.6593 12.058ZM77.6593 10.968C79.0593 10.968 79.9493 9.96796 79.9493 8.38796C79.9493 6.82796 79.0593 5.83796 77.6593 5.83796C76.2693 5.83796 75.3893 6.82796 75.3893 8.38796C75.3893 9.96796 76.2693 10.968 77.6593 10.968ZM83.3718 13.908H82.1818V6.60796H83.1318L83.2518 7.47796C83.6018 6.85796 84.2918 6.44796 85.1318 6.44796C86.5318 6.44796 87.5218 7.58796 87.5218 9.22796C87.5218 10.898 86.5318 12.058 85.1218 12.058C84.3618 12.058 83.7318 11.718 83.3718 11.168V13.908ZM84.8618 11.058C85.7218 11.058 86.3118 10.308 86.3118 9.22796C86.3118 8.17796 85.7218 7.44796 84.8518 7.44796C83.9818 7.44796 83.3718 8.16796 83.3718 9.19796C83.3718 10.288 83.9818 11.058 84.8618 11.058ZM91.3251 11.908H90.6451C89.4951 11.908 88.8751 11.338 88.8751 10.288V7.60796H87.9451V6.60796H88.8751V4.79796H90.0551V6.60796H91.4251V7.60796H90.0551V10.208C90.0551 10.658 90.2851 10.908 90.7251 10.908H91.3251V11.908ZM92.879 5.89796C92.449 5.89796 92.119 5.55796 92.119 5.12796C92.119 4.69796 92.449 4.36796 92.879 4.36796C93.319 4.36796 93.639 4.69796 93.639 5.12796C93.639 5.55796 93.319 5.89796 92.879 5.89796ZM93.469 11.908H92.289V6.60796H93.469V11.908ZM97.1118 12.058C95.3918 12.058 94.3918 10.848 94.3918 9.20796C94.3918 7.47796 95.5618 6.44796 97.1118 6.44796C98.8218 6.44796 99.8218 7.64796 99.8218 9.20796C99.8218 10.998 98.6918 12.058 97.1118 12.058ZM97.1118 11.048C98.0618 11.048 98.6218 10.268 98.6218 9.20796C98.6218 8.15796 98.0318 7.45796 97.1118 7.45796C96.1918 7.45796 95.5918 8.15796 95.5918 9.20796C95.5918 10.368 96.2418 11.048 97.1118 11.048ZM101.926 11.908H100.746V6.60796H101.696L101.796 7.38796C102.126 6.83796 102.796 6.44796 103.586 6.44796C104.716 6.44796 105.456 7.20796 105.456 8.39796V11.908H104.276V8.45796C104.276 7.86796 103.886 7.47796 103.226 7.47796C102.456 7.47796 101.936 8.00796 101.926 8.69796V11.908ZM113.504 6.88796C113.504 9.19796 110.374 9.19796 110.084 10.828H113.374V11.908H108.724V11.248C108.724 8.56796 112.284 8.69796 112.284 6.92796C112.284 6.27796 111.834 5.83796 111.144 5.83796C110.414 5.83796 109.844 6.32796 109.824 7.22796H108.564C108.674 5.64796 109.754 4.75796 111.164 4.75796C112.564 4.75796 113.504 5.61796 113.504 6.88796Z" fill="black"/>
<path d="M151.364 12.058C149.294 12.058 147.874 10.618 147.874 8.38796C147.874 6.26796 149.214 4.75796 151.364 4.75796C153.444 4.75796 154.874 6.18796 154.874 8.38796C154.874 10.528 153.524 12.058 151.364 12.058ZM151.364 10.968C152.764 10.968 153.654 9.96796 153.654 8.38796C153.654 6.82796 152.764 5.83796 151.364 5.83796C149.974 5.83796 149.094 6.82796 149.094 8.38796C149.094 9.96796 149.974 10.968 151.364 10.968ZM157.076 13.908H155.886V6.60796H156.836L156.956 7.47796C157.306 6.85796 157.996 6.44796 158.836 6.44796C160.236 6.44796 161.226 7.58796 161.226 9.22796C161.226 10.898 160.236 12.058 158.826 12.058C158.066 12.058 157.436 11.718 157.076 11.168V13.908ZM158.566 11.058C159.426 11.058 160.016 10.308 160.016 9.22796C160.016 8.17796 159.426 7.44796 158.556 7.44796C157.686 7.44796 157.076 8.16796 157.076 9.19796C157.076 10.288 157.686 11.058 158.566 11.058ZM165.03 11.908H164.35C163.2 11.908 162.58 11.338 162.58 10.288V7.60796H161.65V6.60796H162.58V4.79796H163.76V6.60796H165.13V7.60796H163.76V10.208C163.76 10.658 163.99 10.908 164.43 10.908H165.03V11.908ZM166.584 5.89796C166.154 5.89796 165.824 5.55796 165.824 5.12796C165.824 4.69796 166.154 4.36796 166.584 4.36796C167.024 4.36796 167.344 4.69796 167.344 5.12796C167.344 5.55796 167.024 5.89796 166.584 5.89796ZM167.174 11.908H165.994V6.60796H167.174V11.908ZM170.816 12.058C169.096 12.058 168.096 10.848 168.096 9.20796C168.096 7.47796 169.266 6.44796 170.816 6.44796C172.526 6.44796 173.526 7.64796 173.526 9.20796C173.526 10.998 172.396 12.058 170.816 12.058ZM170.816 11.048C171.766 11.048 172.326 10.268 172.326 9.20796C172.326 8.15796 171.736 7.45796 170.816 7.45796C169.896 7.45796 169.296 8.15796 169.296 9.20796C169.296 10.368 169.946 11.048 170.816 11.048ZM175.631 11.908H174.451V6.60796H175.401L175.501 7.38796C175.831 6.83796 176.501 6.44796 177.291 6.44796C178.421 6.44796 179.161 7.20796 179.161 8.39796V11.908H177.981V8.45796C177.981 7.86796 177.591 7.47796 176.931 7.47796C176.161 7.47796 175.641 8.00796 175.631 8.69796V11.908ZM185.028 12.068C183.378 12.068 182.248 11.158 182.168 9.67796H183.398C183.468 10.488 184.098 10.978 185.028 10.978C185.888 10.978 186.428 10.548 186.428 9.88796C186.428 9.23796 185.898 8.83796 185.018 8.83796H183.928V7.84796H185.018C185.728 7.84796 186.158 7.39796 186.158 6.84796C186.158 6.26796 185.688 5.83796 184.988 5.83796C184.278 5.83796 183.738 6.28796 183.648 6.97796H182.408C182.548 5.63796 183.588 4.75796 185.028 4.75796C186.388 4.75796 187.358 5.53796 187.358 6.62796C187.358 7.45796 186.788 8.09796 185.948 8.27796C186.978 8.46796 187.598 9.12796 187.598 10.058C187.598 11.248 186.578 12.068 185.028 12.068Z" fill="black"/>
<path d="M224.596 12.058C222.526 12.058 221.106 10.618 221.106 8.38796C221.106 6.26796 222.446 4.75796 224.596 4.75796C226.676 4.75796 228.106 6.18796 228.106 8.38796C228.106 10.528 226.756 12.058 224.596 12.058ZM224.596 10.968C225.996 10.968 226.886 9.96796 226.886 8.38796C226.886 6.82796 225.996 5.83796 224.596 5.83796C223.206 5.83796 222.326 6.82796 222.326 8.38796C222.326 9.96796 223.206 10.968 224.596 10.968ZM230.308 13.908H229.118V6.60796H230.068L230.188 7.47796C230.538 6.85796 231.228 6.44796 232.068 6.44796C233.468 6.44796 234.458 7.58796 234.458 9.22796C234.458 10.898 233.468 12.058 232.058 12.058C231.298 12.058 230.668 11.718 230.308 11.168V13.908ZM231.798 11.058C232.658 11.058 233.248 10.308 233.248 9.22796C233.248 8.17796 232.658 7.44796 231.788 7.44796C230.918 7.44796 230.308 8.16796 230.308 9.19796C230.308 10.288 230.918 11.058 231.798 11.058ZM238.262 11.908H237.582C236.432 11.908 235.812 11.338 235.812 10.288V7.60796H234.882V6.60796H235.812V4.79796H236.992V6.60796H238.362V7.60796H236.992V10.208C236.992 10.658 237.222 10.908 237.662 10.908H238.262V11.908ZM239.815 5.89796C239.385 5.89796 239.055 5.55796 239.055 5.12796C239.055 4.69796 239.385 4.36796 239.815 4.36796C240.255 4.36796 240.575 4.69796 240.575 5.12796C240.575 5.55796 240.255 5.89796 239.815 5.89796ZM240.405 11.908H239.225V6.60796H240.405V11.908ZM244.048 12.058C242.328 12.058 241.328 10.848 241.328 9.20796C241.328 7.47796 242.498 6.44796 244.048 6.44796C245.758 6.44796 246.758 7.64796 246.758 9.20796C246.758 10.998 245.628 12.058 244.048 12.058ZM244.048 11.048C244.998 11.048 245.558 10.268 245.558 9.20796C245.558 8.15796 244.968 7.45796 244.048 7.45796C243.128 7.45796 242.528 8.15796 242.528 9.20796C242.528 10.368 243.178 11.048 244.048 11.048ZM248.863 11.908H247.683V6.60796H248.633L248.733 7.38796C249.063 6.83796 249.733 6.44796 250.523 6.44796C251.653 6.44796 252.393 7.20796 252.393 8.39796V11.908H251.213V8.45796C251.213 7.86796 250.823 7.47796 250.163 7.47796C249.393 7.47796 248.873 8.00796 248.863 8.69796V11.908ZM260.02 11.908H258.82V10.348H255.42V9.28796L258.81 4.90796H260.02V9.26796H261.23V10.348H260.02V11.908ZM258.82 6.54796L256.72 9.26796H258.82V6.54796Z" fill="black"/>
<path d="M298.3 12.058C296.23 12.058 294.81 10.618 294.81 8.38796C294.81 6.26796 296.15 4.75796 298.3 4.75796C300.38 4.75796 301.81 6.18796 301.81 8.38796C301.81 10.528 300.46 12.058 298.3 12.058ZM298.3 10.968C299.7 10.968 300.59 9.96796 300.59 8.38796C300.59 6.82796 299.7 5.83796 298.3 5.83796C296.91 5.83796 296.03 6.82796 296.03 8.38796C296.03 9.96796 296.91 10.968 298.3 10.968ZM304.012 13.908H302.822V6.60796H303.772L303.892 7.47796C304.242 6.85796 304.932 6.44796 305.772 6.44796C307.172 6.44796 308.162 7.58796 308.162 9.22796C308.162 10.898 307.172 12.058 305.762 12.058C305.002 12.058 304.372 11.718 304.012 11.168V13.908ZM305.502 11.058C306.362 11.058 306.952 10.308 306.952 9.22796C306.952 8.17796 306.362 7.44796 305.492 7.44796C304.622 7.44796 304.012 8.16796 304.012 9.19796C304.012 10.288 304.622 11.058 305.502 11.058ZM311.966 11.908H311.286C310.136 11.908 309.516 11.338 309.516 10.288V7.60796H308.586V6.60796H309.516V4.79796H310.696V6.60796H312.066V7.60796H310.696V10.208C310.696 10.658 310.926 10.908 311.366 10.908H311.966V11.908ZM313.52 5.89796C313.09 5.89796 312.76 5.55796 312.76 5.12796C312.76 4.69796 313.09 4.36796 313.52 4.36796C313.96 4.36796 314.28 4.69796 314.28 5.12796C314.28 5.55796 313.96 5.89796 313.52 5.89796ZM314.11 11.908H312.93V6.60796H314.11V11.908ZM317.752 12.058C316.032 12.058 315.032 10.848 315.032 9.20796C315.032 7.47796 316.202 6.44796 317.752 6.44796C319.462 6.44796 320.462 7.64796 320.462 9.20796C320.462 10.998 319.332 12.058 317.752 12.058ZM317.752 11.048C318.702 11.048 319.262 10.268 319.262 9.20796C319.262 8.15796 318.672 7.45796 317.752 7.45796C316.832 7.45796 316.232 8.15796 316.232 9.20796C316.232 10.368 316.882 11.048 317.752 11.048ZM322.567 11.908H321.387V6.60796H322.337L322.437 7.38796C322.767 6.83796 323.437 6.44796 324.227 6.44796C325.357 6.44796 326.097 7.20796 326.097 8.39796V11.908H324.917V8.45796C324.917 7.86796 324.527 7.47796 323.867 7.47796C323.097 7.47796 322.577 8.00796 322.567 8.69796V11.908ZM331.944 12.068C330.484 12.068 329.404 11.188 329.224 9.76796H330.494C330.604 10.498 331.194 10.968 331.954 10.968C332.804 10.968 333.314 10.368 333.314 9.60796C333.314 8.86796 332.814 8.25796 331.974 8.25796C331.514 8.25796 331.124 8.43796 330.764 8.81796H329.424L330.044 4.90796H334.204V5.99796H331.034L330.724 7.98796C331.104 7.56796 331.654 7.27796 332.344 7.27796C333.624 7.27796 334.524 8.23796 334.524 9.59796C334.524 11.058 333.474 12.068 331.944 12.068Z" fill="black"/>
<defs>
<linearGradient id="paint0_linear_44_1031" x1="80.2974" y1="-2.14754" x2="155.455" y2="-0.450342" gradientUnits="userSpaceOnUse">
<stop stop-color="#067FD0"/>
<stop stop-color="#067FD0"/>
<stop offset="1" stop-color="#E63B60"/>
</linearGradient>
<linearGradient id="paint1_linear_44_1031" x1="248.412" y1="-2.37452" x2="173.254" y2="-0.677329" gradientUnits="userSpaceOnUse">
<stop stop-color="#067FD0"/>
<stop stop-color="#067FD0"/>
<stop offset="1" stop-color="#E63B60"/>
</linearGradient>
<linearGradient id="paint2_linear_44_1031" x1="226.761" y1="-1.92055" x2="301.919" y2="-0.223354" gradientUnits="userSpaceOnUse">
<stop stop-color="#067FD0"/>
<stop stop-color="#067FD0"/>
<stop offset="1" stop-color="#E63B60"/>
</linearGradient>
<linearGradient id="paint3_linear_44_1031" x1="100.767" y1="-1.92055" x2="25.6092" y2="-0.223355" gradientUnits="userSpaceOnUse">
<stop stop-color="#067FD0"/>
<stop stop-color="#067FD0"/>
<stop offset="1" stop-color="#E63B60"/>
</linearGradient>
</defs>
</svg>
