<svg width="49" height="49" viewBox="0 0 49 49" fill="none" xmlns="http://www.w3.org/2000/svg">
<path d="M6.125 14.2917C6.125 13.1641 7.03909 12.25 8.16667 12.25H40.8333C41.9609 12.25 42.875 13.1641 42.875 14.2917V14.2917C42.875 15.4192 41.9609 16.3333 40.8333 16.3333H8.16667C7.03909 16.3333 6.125 15.4192 6.125 14.2917V14.2917ZM6.125 24.5C6.125 23.3724 7.03909 22.4583 8.16667 22.4583H40.8333C41.9609 22.4583 42.875 23.3724 42.875 24.5V24.5C42.875 25.6276 41.9609 26.5417 40.8333 26.5417H8.16667C7.03909 26.5417 6.125 25.6276 6.125 24.5V24.5ZM6.125 34.7083C6.125 33.5808 7.03909 32.6667 8.16667 32.6667H40.8333C41.9609 32.6667 42.875 33.5808 42.875 34.7083V34.7083C42.875 35.8359 41.9609 36.75 40.8333 36.75H8.16667C7.03909 36.75 6.125 35.8359 6.125 34.7083V34.7083Z" fill="url(#paint0_linear_1_428)"/>
<defs>
<linearGradient id="paint0_linear_1_428" x1="-2.93607" y1="5.16796" x2="40.4054" y2="7.67981" gradientUnits="userSpaceOnUse">
<stop stop-color="#067FD0"/>
<stop stop-color="#067FD0"/>
<stop offset="1" stop-color="#E63B60"/>
</linearGradient>
</defs>
</svg>
